<?xml version="1.0" encoding="UTF-8" standalone="yes"?>
<svg xmlns="http://www.w3.org/2000/svg" xmlns:xlink="http://www.w3.org/1999/xlink" width="270.968px" height="271.827px" version="1.1" viewBox="-86.972 666.080 127.514 127.919">
  <!--
	Exported with Concepts: Smarter Sketching
	Version: 2024.03.3 on Android 13
	https://concepts.app/
	-->
  <title>Drawing 2</title>
  <desc>Drawing exported from Concepts: Smarter Sketching</desc>
  <defs></defs>
  <g id="New_Layer_1" opacity="1.000">
    <path id="STROKE_e8505012-6c6b-485b-8098-1a55d2b3f48f" opacity="1.000" fill="none" stroke="#f8be43" stroke-width="4.584" stroke-opacity="1.000" stroke-linecap="round" stroke-linejoin="round" d="M -79.624 745.157 Q -79.649 745.000 -79.670 744.712 Q -79.691 744.425 -79.708 744.007 Q -79.725 743.589 -79.736 743.306 Q -79.747 743.024 -79.754 742.804 Q -79.761 742.584 -79.771 742.301 Q -79.782 742.018 -79.790 741.822 Q -79.799 741.626 -79.806 741.347 Q -79.812 741.068 -79.820 740.640 Q -79.829 740.213 -79.836 739.868 Q -79.843 739.523 -79.854 739.129 Q -79.864 738.735 -79.865 738.319 Q -79.866 737.903 -79.867 737.556 Q -79.869 737.209 -79.870 736.931 Q -79.871 736.653 -79.873 736.329 Q -79.875 736.004 -79.877 735.717 Q -79.879 735.430 -79.881 735.055 Q -79.884 734.679 -79.887 734.283 Q -79.890 733.887 -79.892 733.584 Q -79.894 733.281 -79.897 732.938 Q -79.899 732.596 -79.901 732.209 Q -79.903 731.822 -79.904 731.390 Q -79.905 730.958 -79.905 730.703 Q -79.905 730.447 -79.905 730.328 Q -79.904 730.209 -79.896 729.745 Q -79.888 729.282 -79.878 728.716 Q -79.868 728.150 -79.864 728.061 Q -79.861 727.973 -79.858 727.691 Q -79.855 727.410 -79.851 726.906 Q -79.848 726.402 -79.846 726.015 Q -79.844 725.627 -79.842 725.221 Q -79.841 724.814 -79.844 724.271 Q -79.848 723.727 -79.850 723.380 Q -79.851 723.032 -79.853 722.754 Q -79.854 722.477 -79.856 722.155 Q -79.857 721.832 -79.859 721.561 Q -79.860 721.290 -79.862 720.960 Q -79.863 720.630 -79.871 720.234 Q -79.878 719.837 -79.882 719.496 Q -79.886 719.155 -79.890 718.737 Q -79.893 718.320 -79.896 717.949 Q -79.899 717.578 -79.901 717.254 Q -79.903 716.930 -79.903 716.619 Q -79.904 716.308 -79.902 716.011 Q -79.901 715.714 -79.898 715.377 Q -79.895 715.039 -79.890 714.661 Q -79.886 714.284 -79.881 713.966 Q -79.877 713.648 -79.869 713.260 Q -79.861 712.873 -79.843 712.458 Q -79.825 712.043 -79.800 711.537 Q -79.774 711.031 -79.748 710.643 Q -79.722 710.255 -79.695 709.858 Q -79.669 709.461 -79.636 709.072 Q -79.604 708.684 -79.573 708.376 Q -79.543 708.068 -79.504 707.712 Q -79.465 707.355 -79.425 707.032 Q -79.384 706.708 -79.323 706.273 Q -79.261 705.839 -79.204 705.494 Q -79.147 705.150 -79.081 704.795 Q -79.014 704.440 -78.957 704.143 Q -78.900 703.846 -78.831 703.488 Q -78.761 703.130 -78.703 702.836 Q -78.645 702.542 -78.575 702.196 Q -78.505 701.850 -78.434 701.542 Q -78.363 701.234 -78.306 701.017 Q -78.248 700.800 -78.150 700.475 Q -78.052 700.150 -77.894 699.645 Q -77.736 699.139 -77.628 698.805 Q -77.519 698.471 -77.461 698.307 Q -77.402 698.143 -77.301 697.885 Q -77.201 697.627 -77.058 697.275 Q -76.916 696.923 -76.771 696.580 Q -76.625 696.238 -76.476 695.905 Q -76.327 695.572 -76.157 695.217 Q -75.987 694.862 -75.795 694.484 Q -75.603 694.106 -75.423 693.764 Q -75.243 693.423 -75.074 693.118 Q -74.905 692.814 -74.735 692.519 Q -74.565 692.225 -74.393 691.940 Q -74.222 691.655 -74.036 691.355 Q -73.850 691.054 -73.649 690.738 Q -73.448 690.422 -73.282 690.169 Q -73.116 689.917 -72.920 689.634 Q -72.723 689.350 -72.535 689.095 Q -72.348 688.840 -72.075 688.479 Q -71.802 688.119 -71.662 687.939 Q -71.522 687.759 -71.355 687.554 Q -71.188 687.350 -70.946 687.061 Q -70.705 686.772 -70.497 686.531 Q -70.289 686.289 -70.027 685.998 Q -69.764 685.706 -69.514 685.444 Q -69.264 685.182 -69.027 684.951 Q -68.789 684.719 -68.481 684.431 Q -68.174 684.142 -67.918 683.909 Q -67.662 683.676 -67.357 683.410 Q -67.052 683.144 -66.796 682.935 Q -66.540 682.726 -66.290 682.532 Q -66.039 682.338 -65.710 682.089 Q -65.380 681.841 -65.060 681.606 Q -64.739 681.372 -64.428 681.151 Q -64.116 680.931 -63.860 680.754 Q -63.603 680.577 -63.401 680.443 Q -63.199 680.309 -62.871 680.100 Q -62.543 679.890 -62.090 679.606 Q -61.636 679.321 -61.306 679.117 Q -60.975 678.912 -60.767 678.788 Q -60.559 678.663 -60.286 678.508 Q -60.013 678.354 -59.675 678.169 Q -59.337 677.984 -58.908 677.770 Q -58.479 677.556 -57.958 677.312 Q -57.438 677.069 -57.034 676.892 Q -56.631 676.716 -56.344 676.607 Q -56.058 676.497 -55.756 676.391 Q -55.455 676.285 -55.140 676.183 Q -54.824 676.080 -54.504 675.986 Q -54.185 675.892 -53.862 675.805 Q -53.540 675.719 -53.267 675.650 Q -52.994 675.580 -52.660 675.501 Q -52.326 675.422 -52.155 675.388 Q -51.984 675.354 -51.616 675.278 Q -51.248 675.202 -50.679 675.088 Q -50.111 674.974 -49.922 674.940 Q -49.734 674.906 -49.278 674.825 Q -48.823 674.744 -48.512 674.691 Q -48.202 674.638 -47.885 674.585 Q -47.568 674.532 -47.294 674.488 Q -47.020 674.444 -46.789 674.408 Q -46.558 674.372 -46.217 674.319 Q -45.875 674.267 -45.423 674.199 Q -44.971 674.130 -44.599 674.077 Q -44.227 674.024 -43.790 673.967 Q -43.353 673.910 -42.952 673.872 Q -42.551 673.834 -42.239 673.805 Q -41.927 673.775 -41.412 673.739 Q -40.898 673.702 -40.567 673.686 Q -40.237 673.669 -39.788 673.647 Q -39.340 673.626 -39.222 673.622 Q -39.104 673.618 -38.846 673.608 Q -38.589 673.597 -38.153 673.578 Q -37.717 673.559 -37.284 673.546 Q -36.852 673.532 -36.423 673.524 Q -35.995 673.515 -35.636 673.508 Q -35.278 673.502 -34.990 673.497 Q -34.701 673.493 -34.338 673.489 Q -33.975 673.486 -33.538 673.483 Q -33.101 673.481 -32.678 673.478 Q -32.256 673.475 -31.848 673.471 Q -31.440 673.467 -31.039 673.464 Q -30.638 673.460 -30.243 673.457 Q -29.848 673.453 -29.639 673.451 Q -29.430 673.449 -29.395 673.448 Q -29.360 673.446 -28.894 673.437 Q -28.428 673.429 -27.974 673.423 Q -27.520 673.417 -26.922 673.412 Q -26.325 673.406 -25.858 673.405 Q -25.392 673.403 -25.014 673.406 Q -24.636 673.408 -24.215 673.412 Q -23.795 673.416 -23.206 673.422 Q -22.617 673.427 -22.178 673.433 Q -21.738 673.439 -21.302 673.447 Q -20.865 673.455 -20.730 673.457 Q -20.595 673.459 -20.306 673.466 Q -20.018 673.473 -19.531 673.485 Q -19.044 673.497 -18.766 673.503 Q -18.488 673.510 -18.419 673.511 Q -18.350 673.512 -18.145 673.517 Q -17.940 673.523 -17.599 673.531 Q -17.257 673.540 -16.907 673.548 Q -16.557 673.555 -16.198 673.561 Q -15.839 673.567 -15.554 673.571 Q -15.269 673.574 -14.952 673.575 Q -14.635 673.576 -14.200 673.578 Q -13.764 673.579 -13.398 673.581 Q -13.033 673.582 -12.593 673.584 Q -12.153 673.586 -11.800 673.587 Q -11.448 673.589 -11.052 673.591 Q -10.656 673.592 -10.393 673.594 Q -10.130 673.596 -9.722 673.599 Q -9.315 673.602 -9.009 673.605 Q -8.703 673.608 -8.363 673.614 Q -8.022 673.619 -7.729 673.624 Q -7.435 673.630 -7.064 673.639 Q -6.693 673.648 -6.279 673.661 Q -5.865 673.674 -5.534 673.685 Q -5.203 673.696 -4.816 673.709 Q -4.429 673.723 -4.131 673.733 Q -3.832 673.743 -3.516 673.754 Q -3.200 673.765 -3.096 673.769 Q -2.992 673.773 -2.655 673.791 Q -2.318 673.809 -1.864 673.839 Q -1.409 673.870 -1.084 673.896 Q -0.759 673.922 -0.411 673.953 Q -0.063 673.985 0.505 674.038 Q 1.073 674.092 1.861 674.166 Q 1.891 674.171 2.136 674.200 Q 2.382 674.229 2.619 674.257 Q 2.857 674.284 3.169 674.320 Q 3.481 674.356 3.750 674.388 Q 4.020 674.420 4.362 674.463 Q 4.704 674.506 5.028 674.555 Q 5.353 674.603 5.640 674.651 Q 5.928 674.699 6.287 674.762 Q 6.646 674.826 6.995 674.894 Q 7.344 674.962 7.683 675.035 Q 8.022 675.108 8.513 675.230 Q 9.003 675.353 9.644 675.525 Q 10.138 675.688 10.569 675.845 Q 10.999 676.002 11.365 676.151 Q 11.731 676.301 12.023 676.430 Q 12.316 676.560 12.645 676.723 Q 12.974 676.887 13.201 677.007 Q 13.428 677.127 13.742 677.314 Q 14.055 677.500 14.423 677.726 Q 14.791 677.952 15.131 678.172 Q 15.471 678.393 15.906 678.682 Q 16.342 678.972 16.743 679.248 Q 17.145 679.524 17.514 679.786 Q 17.882 680.048 18.151 680.243 Q 18.419 680.439 18.670 680.633 Q 18.920 680.826 19.211 681.055 Q 19.501 681.284 19.682 681.436 Q 19.864 681.588 20.118 681.797 Q 20.372 682.006 20.604 682.210 Q 20.836 682.414 21.125 682.685 Q 21.415 682.956 21.716 683.247 Q 22.016 683.538 22.327 683.865 Q 22.638 684.191 23.058 684.651 Q 23.479 685.111 23.764 685.434 Q 24.049 685.758 24.275 686.037 Q 24.501 686.317 24.512 686.328 Q 24.522 686.338 24.696 686.569 Q 24.869 686.799 25.201 687.258 Q 25.533 687.717 25.814 688.124 Q 26.095 688.531 26.328 688.884 Q 26.561 689.238 26.773 689.565 Q 26.984 689.892 27.176 690.192 Q 27.367 690.492 27.545 690.782 Q 27.723 691.072 27.890 691.350 Q 28.056 691.629 28.194 691.867 Q 28.332 692.105 28.498 692.401 Q 28.664 692.697 28.833 693.017 Q 29.003 693.337 29.081 693.485 Q 29.159 693.632 29.276 693.876 Q 29.394 694.120 29.577 694.509 Q 29.760 694.899 29.865 695.126 Q 29.971 695.352 29.999 695.415 Q 30.027 695.478 30.120 695.710 Q 30.213 695.943 30.372 696.345 Q 30.531 696.748 30.623 696.981 Q 30.716 697.214 30.753 697.310 Q 30.791 697.406 30.907 697.752 Q 31.023 698.097 31.174 698.559 Q 31.325 699.020 31.456 699.444 Q 31.587 699.868 31.619 699.965 Q 31.651 700.063 31.731 700.343 Q 31.811 700.624 31.871 700.862 Q 31.931 701.100 32.001 701.391 Q 32.071 701.681 32.172 702.102 Q 32.273 702.523 32.349 702.861 Q 32.424 703.199 32.497 703.581 Q 32.570 703.963 32.621 704.282 Q 32.672 704.601 32.730 705.068 Q 32.788 705.534 32.832 705.998 Q 32.876 706.462 32.926 707.078 Q 32.976 707.694 33.009 708.159 Q 33.042 708.624 33.064 709.094 Q 33.087 709.565 33.103 710.149 Q 33.120 710.732 33.122 710.746 Q 33.124 710.760 33.128 711.325 Q 33.132 711.890 33.132 712.329 Q 33.133 712.769 33.132 713.114 Q 33.131 713.459 33.129 713.855 Q 33.126 714.252 33.124 714.574 Q 33.122 714.896 33.119 715.267 Q 33.116 715.639 33.115 715.940 Q 33.115 716.242 33.114 716.590 Q 33.112 716.937 33.114 717.221 Q 33.117 717.504 33.121 717.787 Q 33.126 718.070 33.133 718.447 Q 33.140 718.823 33.145 719.115 Q 33.150 719.407 33.155 719.721 Q 33.160 720.034 33.167 720.310 Q 33.173 720.586 33.184 720.896 Q 33.195 721.205 33.202 721.509 Q 33.210 721.813 33.216 722.214 Q 33.222 722.615 33.226 722.992 Q 33.229 723.369 33.230 723.723 Q 33.231 724.077 33.231 724.397 Q 33.232 724.717 33.232 725.146 Q 33.232 725.575 33.230 725.667 Q 33.228 725.759 33.224 725.957 Q 33.221 726.156 33.215 726.492 Q 33.210 726.828 33.204 727.133 Q 33.199 727.437 33.193 727.711 Q 33.187 727.984 33.180 728.283 Q 33.174 728.581 33.166 728.904 Q 33.158 729.228 33.150 729.535 Q 33.142 729.842 33.134 730.133 Q 33.126 730.423 33.115 730.762 Q 33.104 731.101 33.091 731.489 Q 33.077 731.876 33.062 732.300 Q 33.047 732.724 33.030 733.185 Q 33.014 733.645 32.998 734.050 Q 32.982 734.455 32.966 734.804 Q 32.951 735.153 32.939 735.438 Q 32.928 735.723 32.916 736.055 Q 32.904 736.387 32.897 736.630 Q 32.891 736.874 32.885 737.035 Q 32.879 737.196 32.872 737.497 Q 32.864 737.799 32.860 738.057 Q 32.855 738.316 32.851 738.633 Q 32.847 738.950 32.845 739.234 Q 32.843 739.519 32.844 739.772 Q 32.844 740.025 32.847 740.325 Q 32.849 740.625 32.854 740.972 Q 32.859 741.319 32.862 741.508 Q 32.865 741.697 32.866 741.743 Q 32.867 741.790 32.870 742.213 Q 32.873 742.637 32.874 743.026 Q 32.876 743.414 32.876 743.910 Q 32.877 744.405 32.875 744.798 Q 32.874 745.192 32.871 745.483 Q 32.868 745.774 32.866 746.077 Q 32.863 746.379 32.861 746.692 Q 32.859 747.006 32.856 747.353 Q 32.853 747.701 32.849 748.084 Q 32.845 748.466 32.841 748.827 Q 32.837 749.188 32.833 749.528 Q 32.829 749.868 32.825 750.112 Q 32.821 750.357 32.818 750.507 Q 32.815 750.657 32.809 750.916 Q 32.803 751.176 32.794 751.545 Q 32.784 751.914 32.773 752.243 Q 32.762 752.571 32.749 752.859 Q 32.735 753.147 32.712 753.506 Q 32.688 753.865 32.654 754.294 Q 32.620 754.724 32.590 755.070 Q 32.560 755.416 32.534 755.677 Q 32.508 755.938 32.469 756.239 Q 32.430 756.540 32.378 756.881 Q 32.326 757.222 32.270 757.557 Q 32.214 757.892 32.153 758.220 Q 32.092 758.549 32.029 758.852 Q 31.966 759.155 31.867 759.573 Q 31.767 759.990 31.661 760.371 Q 31.555 760.751 31.468 761.034 Q 31.381 761.317 31.278 761.629 Q 31.175 761.942 31.054 762.277 Q 30.934 762.613 30.796 762.971 Q 30.657 763.330 30.542 763.616 Q 30.426 763.903 30.332 764.118 Q 30.239 764.333 30.121 764.585 Q 30.004 764.837 29.863 765.127 Q 29.721 765.416 29.545 765.756 Q 29.369 766.096 29.157 766.486 Q 28.946 766.876 28.711 767.292 Q 28.475 767.707 28.217 768.147 Q 27.958 768.587 27.767 768.906 Q 27.575 769.225 27.450 769.422 Q 27.326 769.620 27.152 769.883 Q 26.979 770.146 26.758 770.473 Q 26.537 770.800 26.406 770.994 Q 26.275 771.187 26.214 771.278 Q 26.152 771.369 26.044 771.516 Q 25.936 771.664 25.778 771.866 Q 25.620 772.069 25.378 772.375 Q 25.135 772.682 24.958 772.901 Q 24.782 773.121 24.615 773.320 Q 24.448 773.519 24.185 773.817 Q 23.921 774.116 23.620 774.440 Q 23.319 774.765 23.097 774.989 Q 22.876 775.213 22.621 775.455 Q 22.367 775.698 22.151 775.894 Q 21.935 776.090 21.673 776.320 Q 21.411 776.551 21.256 776.686 Q 21.101 776.821 21.052 776.861 Q 21.002 776.901 20.842 777.031 Q 20.682 777.162 20.412 777.383 Q 20.141 777.604 19.945 777.763 Q 19.749 777.921 19.565 778.065 Q 19.382 778.208 19.042 778.458 Q 18.701 778.708 18.436 778.894 Q 18.170 779.080 17.865 779.284 Q 17.560 779.489 17.280 779.674 Q 16.999 779.859 16.743 780.023 Q 16.486 780.187 16.160 780.383 Q 15.834 780.578 15.438 780.804 Q 15.043 781.031 14.722 781.208 Q 14.401 781.385 14.031 781.577 Q 13.661 781.769 13.360 781.920 Q 13.060 782.071 12.817 782.187 Q 12.574 782.302 12.288 782.434 Q 12.003 782.565 11.815 782.650 Q 11.628 782.735 11.539 782.773 Q 11.451 782.812 11.230 782.900 Q 11.009 782.989 10.656 783.127 Q 10.302 783.265 9.995 783.382 Q 9.688 783.499 9.428 783.595 Q 9.168 783.690 8.882 783.791 Q 8.596 783.891 8.284 783.996 Q 7.972 784.102 7.748 784.176 Q 7.524 784.251 7.320 784.315 Q 7.116 784.380 6.605 784.529 Q 6.094 784.679 5.684 784.794 Q 5.274 784.910 4.835 785.028 Q 4.395 785.146 4.058 785.229 Q 3.722 785.313 3.341 785.401 Q 2.961 785.490 2.620 785.567 Q 2.279 785.645 1.828 785.744 Q 1.377 785.843 0.968 785.923 Q 0.559 786.003 0.216 786.058 Q -0.127 786.114 -0.541 786.172 Q -0.955 786.229 -1.308 786.275 Q -1.662 786.321 -2.101 786.372 Q -2.541 786.423 -3.160 786.480 Q -3.779 786.537 -4.200 786.572 Q -4.621 786.607 -4.952 786.625 Q -5.283 786.643 -5.591 786.655 Q -5.898 786.668 -6.319 786.682 Q -6.740 786.696 -7.378 786.715 Q -8.015 786.734 -8.528 786.746 Q -9.042 786.757 -9.625 786.766 Q -10.207 786.774 -10.781 786.774 Q -11.355 786.773 -11.690 786.775 Q -12.024 786.777 -12.485 786.771 Q -12.946 786.764 -13.310 786.763 Q -13.673 786.762 -14.093 786.763 Q -14.513 786.765 -14.844 786.768 Q -15.176 786.771 -15.418 786.777 Q -15.661 786.782 -16.039 786.795 Q -16.417 786.808 -16.929 786.828 Q -17.441 786.848 -17.933 786.863 Q -18.424 786.878 -18.894 786.889 Q -19.364 786.900 -19.658 786.906 Q -19.953 786.912 -20.131 786.916 Q -20.309 786.920 -20.684 786.921 Q -21.059 786.922 -21.418 786.922 Q -21.778 786.923 -22.246 786.922 Q -22.714 786.921 -22.963 786.919 Q -23.212 786.918 -23.242 786.917 Q -23.272 786.916 -23.485 786.914 Q -23.698 786.912 -24.093 786.908 Q -24.488 786.904 -24.776 786.901 Q -25.064 786.897 -25.335 786.894 Q -25.606 786.892 -26.097 786.874 Q -26.588 786.856 -26.885 786.846 Q -27.182 786.837 -27.445 786.828 Q -27.708 786.819 -28.035 786.808 Q -28.363 786.797 -28.788 786.782 Q -29.212 786.767 -29.734 786.748 Q -30.255 786.730 -30.661 786.715 Q -31.067 786.700 -31.503 786.684 Q -31.939 786.669 -32.128 786.660 Q -32.317 786.652 -32.646 786.640 Q -32.976 786.628 -33.347 786.618 Q -33.718 786.609 -34.034 786.601 Q -34.349 786.594 -34.733 786.585 Q -35.117 786.576 -35.429 786.569 Q -35.742 786.563 -36.106 786.556 Q -36.470 786.548 -36.701 786.546 Q -36.932 786.544 -37.192 786.541 Q -37.452 786.538 -37.818 786.533 Q -38.183 786.527 -38.590 786.523 Q -38.998 786.519 -39.446 786.516 Q -39.895 786.512 -40.240 786.511 Q -40.584 786.510 -40.945 786.512 Q -41.306 786.513 -41.802 786.505 Q -42.299 786.496 -42.731 786.483 Q -43.162 786.470 -43.683 786.441 Q -44.203 786.412 -44.577 786.385 Q -44.951 786.359 -45.239 786.337 Q -45.526 786.316 -45.852 786.291 Q -46.177 786.265 -46.438 786.245 Q -46.698 786.225 -46.991 786.202 Q -47.283 786.179 -47.477 786.162 Q -47.672 786.145 -48.226 786.081 Q -48.780 786.017 -49.242 785.958 Q -49.703 785.900 -50.138 785.837 Q -50.573 785.774 -50.892 785.723 Q -51.210 785.672 -51.556 785.611 Q -51.903 785.550 -52.149 785.504 Q -52.394 785.458 -52.611 785.409 Q -52.828 785.361 -53.077 785.291 Q -53.326 785.221 -53.611 785.133 Q -53.896 785.045 -54.301 784.917 Q -54.706 784.789 -54.983 784.696 Q -55.260 784.603 -55.407 784.545 Q -55.555 784.487 -55.798 784.379 Q -56.040 784.271 -56.378 784.114 Q -56.715 783.956 -57.054 783.781 Q -57.393 783.605 -57.733 783.412 Q -58.073 783.219 -58.413 783.022 Q -58.753 782.824 -59.092 782.623 Q -59.431 782.422 -59.799 782.199 Q -60.168 781.976 -60.566 781.732 Q -60.965 781.487 -61.240 781.318 Q -61.514 781.148 -61.740 781.006 Q -61.967 780.863 -62.444 780.549 Q -62.921 780.235 -63.374 779.922 Q -63.827 779.608 -64.175 779.356 Q -64.522 779.103 -64.903 778.824 Q -65.284 778.546 -65.399 778.457 Q -65.513 778.369 -65.674 778.240 Q -65.836 778.110 -66.082 777.910 Q -66.329 777.710 -66.521 777.552 Q -66.713 777.394 -66.918 777.221 Q -67.123 777.047 -67.474 776.728 Q -67.825 776.408 -68.031 776.214 Q -68.236 776.020 -68.472 775.788 Q -68.708 775.556 -69.044 775.221 Q -69.379 774.886 -69.608 774.653 Q -69.836 774.419 -70.019 774.219 Q -70.201 774.020 -70.477 773.712 Q -70.753 773.404 -70.780 773.378 Q -70.807 773.353 -71.073 773.033 Q -71.338 772.713 -71.540 772.455 Q -71.743 772.198 -71.970 771.896 Q -72.197 771.594 -72.355 771.385 Q -72.512 771.175 -72.643 770.999 Q -72.774 770.823 -73.129 770.310 Q -73.485 769.796 -73.742 769.408 Q -73.999 769.019 -74.212 768.674 Q -74.425 768.328 -74.589 768.047 Q -74.754 767.767 -74.941 767.436 Q -75.128 767.106 -75.316 766.751 Q -75.503 766.396 -75.691 766.017 Q -75.879 765.638 -76.030 765.317 Q -76.180 764.996 -76.294 764.733 Q -76.407 764.470 -76.527 764.183 Q -76.647 763.895 -76.774 763.584 Q -76.901 763.272 -76.972 763.097 Q -77.043 762.922 -77.065 762.866 Q -77.088 762.809 -77.274 762.273 Q -77.461 761.738 -77.626 761.186 Q -77.792 760.634 -77.853 760.426 Q -77.914 760.217 -78.028 759.776 Q -78.142 759.335 -78.199 759.104 Q -78.256 758.873 -78.317 758.575 Q -78.377 758.277 -78.428 758.017 Q -78.478 757.758 -78.540 757.437 Q -78.601 757.117 -78.653 756.836 Q -78.704 756.554 -78.767 756.191 Q -78.830 755.828 -78.880 755.459 Q -78.931 755.091 -78.968 754.787 Q -79.006 754.484 -79.047 754.122 Q -79.089 753.760 -79.110 753.574 Q -79.132 753.389 -79.134 753.376 Q -79.136 753.363 -79.185 752.847 Q -79.234 752.332 -79.266 751.905 Q -79.299 751.479 -79.315 751.203 Q -79.332 750.926 -79.348 750.649 Q -79.365 750.371 -79.386 749.999 Q -79.407 749.627 -79.424 749.299 Q -79.442 748.970 -79.464 748.542 Q -79.486 748.115 -79.510 747.576 Q -79.533 747.037 -79.540 746.890 Q -79.547 746.743 -79.561 746.163 Q -79.574 745.584 -79.583 745.305 Q -79.592 745.026 -79.591 744.966 Q -79.591 744.906 -79.598 744.741 Q -79.606 744.576 -79.621 743.838 "></path>
    <path id="STROKE_93f047ae-0228-4f2b-8a1e-9a955003e13f" opacity="1.000" fill="#f8be43" stroke="#f8be43" stroke-width="0.000" stroke-opacity="1.000" stroke-linecap="round" stroke-linejoin="round" d="M -80.065 708.895 Q -80.114 708.727 -80.088 707.737 Q -80.061 706.747 -79.995 706.186 Q -79.928 705.626 -79.847 705.195 Q -79.766 704.764 -79.477 703.586 Q -79.189 702.407 -78.603 700.816 Q -78.018 699.225 -77.682 698.427 Q -77.347 697.628 -77.215 697.298 Q -77.083 696.968 -76.420 695.521 Q -75.757 694.074 -75.380 693.318 Q -75.003 692.561 -74.732 692.044 Q -74.461 691.527 -74.302 691.229 Q -74.143 690.930 -74.042 690.736 Q -73.942 690.542 -73.402 689.537 Q -72.863 688.532 -72.491 687.939 Q -72.119 687.345 -71.670 686.723 Q -71.221 686.101 -70.724 685.516 Q -70.227 684.931 -69.782 684.447 Q -69.336 683.963 -68.605 683.265 Q -67.874 682.568 -67.046 681.925 Q -66.219 681.281 -65.438 680.706 Q -64.658 680.131 -64.032 679.703 Q -63.406 679.274 -62.899 678.966 Q -62.392 678.658 -61.735 678.318 Q -61.078 677.979 -60.041 677.516 Q -59.004 677.053 -57.446 676.492 Q -55.888 675.931 -55.006 675.682 Q -54.124 675.434 -52.966 675.136 Q -51.809 674.837 -50.579 674.517 Q -49.349 674.198 -48.422 674.036 Q -47.496 673.875 -46.767 673.803 Q -46.038 673.731 -45.646 673.695 Q -45.254 673.658 -43.301 673.539 Q -41.348 673.419 -40.313 673.408 Q -39.279 673.398 -38.806 673.403 Q -38.333 673.408 -37.163 673.452 Q -35.993 673.496 -35.410 673.522 Q -34.828 673.547 -33.529 673.606 Q -32.229 673.665 -31.005 673.666 Q -29.781 673.666 -28.993 673.630 Q -28.205 673.594 -26.529 673.566 Q -24.853 673.539 -23.920 673.540 Q -22.987 673.542 -22.107 673.541 Q -21.228 673.541 -20.672 673.542 Q -20.116 673.543 -19.727 673.543 Q -19.338 673.542 -17.867 673.577 Q -16.395 673.611 -15.511 673.631 Q -14.627 673.650 -14.122 673.655 Q -13.617 673.659 -13.264 673.659 Q -12.911 673.659 -11.573 673.700 Q -10.235 673.740 -8.988 673.807 Q -7.741 673.875 -7.123 673.913 Q -6.505 673.951 -5.653 674.036 Q -4.801 674.121 -4.052 674.221 Q -3.302 674.320 -2.282 674.451 Q -1.262 674.583 0.441 674.885 Q 2.145 675.188 3.088 675.362 Q 4.032 675.535 4.543 675.637 Q 5.054 675.738 5.507 675.840 Q 5.959 675.943 6.641 676.095 Q 7.323 676.247 7.914 676.382 Q 8.506 676.516 9.578 676.832 Q 10.651 677.147 11.075 677.284 Q 11.500 677.421 11.976 677.589 Q 12.453 677.758 13.234 678.106 Q 14.014 678.455 14.611 678.791 Q 15.207 679.127 15.469 679.296 Q 15.731 679.466 16.415 680.074 Q 17.099 680.682 17.667 681.204 Q 18.235 681.726 18.394 681.862 Q 18.552 681.998 18.857 682.241 Q 19.162 682.485 19.588 682.827 Q 20.014 683.169 20.522 683.594 Q 21.030 684.019 21.054 684.031 Q 21.077 684.042 21.530 684.409 Q 21.983 684.777 22.230 684.998 Q 22.478 685.220 22.606 685.356 Q 22.733 685.492 22.824 685.585 Q 22.915 685.679 23.033 685.811 Q 23.151 685.942 23.723 686.617 Q 24.294 687.293 24.405 687.448 Q 24.515 687.603 24.818 688.154 Q 25.121 688.706 25.594 689.795 Q 26.067 690.884 26.366 691.753 Q 26.665 692.621 26.855 693.127 Q 27.045 693.632 27.154 693.867 Q 27.262 694.102 27.491 694.624 Q 27.719 695.146 27.983 695.787 Q 28.247 696.427 28.391 696.791 Q 28.536 697.156 28.684 697.515 Q 28.832 697.874 28.892 698.029 Q 28.953 698.184 29.029 698.360 Q 29.105 698.537 29.346 699.041 Q 29.586 699.546 29.809 700.002 Q 30.032 700.459 30.201 700.867 Q 30.371 701.275 30.600 701.883 Q 30.828 702.490 30.966 702.914 Q 31.105 703.338 31.215 703.720 Q 31.325 704.102 31.506 704.818 Q 31.686 705.535 31.791 705.950 Q 31.896 706.365 31.920 706.458 Q 31.943 706.550 32.028 706.918 Q 32.112 707.287 32.196 707.740 Q 32.279 708.193 32.351 708.711 Q 32.424 709.228 32.457 709.467 Q 32.489 709.706 32.557 710.472 Q 32.625 711.238 32.630 712.178 Q 32.636 713.117 32.606 713.717 Q 32.576 714.316 32.506 715.481 Q 32.435 716.645 32.409 717.702 Q 32.382 718.759 32.377 720.904 Q 32.372 723.049 32.368 724.193 Q 32.365 725.336 32.411 726.498 Q 32.456 727.661 32.490 728.583 Q 32.523 729.506 32.525 729.893 Q 32.528 730.281 32.526 730.945 Q 32.523 731.610 32.452 733.946 Q 32.381 736.282 32.314 737.462 Q 32.247 738.641 32.157 739.578 Q 32.067 740.516 32.014 740.979 Q 31.961 741.443 31.855 742.623 Q 31.750 743.802 31.678 744.982 Q 31.606 746.161 31.577 746.785 Q 31.547 747.408 31.499 748.280 Q 31.451 749.152 31.431 749.522 Q 31.411 749.892 31.396 750.383 Q 31.382 750.873 31.366 751.788 Q 31.350 752.702 31.272 753.689 Q 31.195 754.676 31.083 755.697 Q 30.971 756.718 30.901 757.281 Q 30.831 757.844 30.753 758.320 Q 30.675 758.795 30.582 759.239 Q 30.488 759.682 30.236 760.729 Q 29.984 761.777 29.810 762.438 Q 29.635 763.099 29.060 764.753 Q 28.484 766.406 28.188 767.119 Q 27.892 767.832 27.560 768.439 Q 27.229 769.045 26.807 769.685 Q 26.386 770.325 26.118 770.669 Q 25.850 771.013 25.366 771.551 Q 24.881 772.089 24.447 772.537 Q 24.014 772.985 23.496 773.501 Q 22.979 774.016 22.698 774.274 Q 22.417 774.532 21.831 775.025 Q 21.246 775.519 21.022 775.702 Q 20.798 775.885 20.396 776.215 Q 19.993 776.544 19.198 777.171 Q 18.404 777.797 17.725 778.282 Q 17.046 778.768 16.683 779.016 Q 16.319 779.264 15.319 779.923 Q 14.319 780.582 13.722 780.947 Q 13.126 781.312 12.818 781.477 Q 12.510 781.643 12.282 781.761 Q 12.053 781.880 11.523 782.120 Q 10.993 782.359 10.564 782.526 Q 10.135 782.694 9.436 782.946 Q 8.737 783.199 8.252 783.383 Q 7.767 783.567 6.449 784.000 Q 5.131 784.432 4.492 784.617 Q 3.854 784.801 3.184 784.981 Q 2.515 785.162 2.014 785.270 Q 1.514 785.377 1.193 785.439 Q 0.872 785.500 -0.494 785.686 Q -1.860 785.872 -2.646 785.974 Q -3.432 786.076 -4.485 786.167 Q -5.539 786.258 -6.167 786.276 Q -6.796 786.293 -7.367 786.304 Q -7.938 786.315 -9.537 786.266 Q -11.137 786.217 -11.970 786.171 Q -12.803 786.126 -13.394 786.124 Q -13.986 786.123 -14.128 786.129 Q -14.271 786.135 -15.620 786.123 Q -16.968 786.110 -18.413 786.073 Q -19.857 786.036 -20.812 786.029 Q -21.766 786.021 -22.387 786.044 Q -23.007 786.066 -23.932 786.087 Q -24.856 786.107 -26.446 786.100 Q -28.036 786.092 -28.879 786.081 Q -29.723 786.069 -30.264 786.070 Q -30.804 786.071 -31.308 786.073 Q -31.811 786.075 -32.079 786.080 Q -32.348 786.085 -34.036 786.065 Q -35.725 786.045 -36.782 786.007 Q -37.839 785.969 -38.670 785.916 Q -39.502 785.863 -40.054 785.820 Q -40.606 785.778 -41.683 785.707 Q -42.759 785.637 -44.740 785.433 Q -46.721 785.229 -47.976 785.060 Q -49.231 784.892 -49.893 784.785 Q -50.556 784.677 -50.681 784.659 Q -50.807 784.641 -51.830 784.469 Q -52.853 784.297 -53.625 784.134 Q -54.397 783.971 -54.890 783.848 Q -55.384 783.726 -55.647 783.643 Q -55.910 783.561 -56.155 783.467 Q -56.401 783.374 -56.553 783.309 Q -56.705 783.244 -57.226 783.023 Q -57.747 782.802 -57.801 782.783 Q -57.854 782.763 -58.129 782.648 Q -58.405 782.532 -58.686 782.413 Q -58.968 782.294 -59.256 782.151 Q -59.543 782.008 -59.613 781.973 Q -59.683 781.939 -59.962 781.790 Q -60.240 781.641 -60.573 781.438 Q -60.906 781.235 -61.002 781.171 Q -61.099 781.107 -61.271 780.994 Q -61.442 780.880 -61.794 780.615 Q -62.145 780.350 -62.163 780.333 Q -62.182 780.317 -62.663 779.928 Q -63.144 779.539 -63.643 779.133 Q -64.142 778.726 -64.423 778.498 Q -64.705 778.271 -64.903 778.106 Q -65.101 777.942 -65.568 777.551 Q -66.036 777.159 -66.284 776.953 Q -66.532 776.748 -67.040 776.331 Q -67.548 775.914 -67.970 775.550 Q -68.392 775.187 -68.565 775.034 Q -68.739 774.880 -68.979 774.650 Q -69.219 774.419 -69.320 774.320 Q -69.421 774.221 -69.762 773.864 Q -70.104 773.507 -70.373 773.210 Q -70.642 772.914 -70.820 772.700 Q -70.998 772.487 -71.466 771.855 Q -71.935 771.222 -72.408 770.547 Q -72.880 769.871 -72.977 769.726 Q -73.074 769.581 -73.299 769.234 Q -73.524 768.888 -73.590 768.781 Q -73.657 768.673 -73.856 768.360 Q -74.056 768.046 -74.377 767.552 Q -74.697 767.058 -75.030 766.422 Q -75.363 765.787 -75.603 765.337 Q -75.844 764.887 -75.972 764.662 Q -76.100 764.436 -76.312 764.067 Q -76.524 763.698 -76.735 763.305 Q -76.947 762.912 -77.144 762.466 Q -77.341 762.019 -77.406 761.852 Q -77.470 761.684 -77.580 761.395 Q -77.691 761.106 -77.779 760.854 Q -77.866 760.603 -77.949 760.337 Q -78.031 760.070 -78.063 759.969 Q -78.095 759.867 -78.104 759.843 Q -78.113 759.819 -78.227 759.352 Q -78.341 758.884 -78.407 758.571 Q -78.473 758.258 -78.552 757.890 "></path>
    <path id="STROKE_19490937-452a-46bd-9252-b91cc88b2e26" opacity="1.000" fill="none" stroke="#000000" stroke-width="4.584" stroke-opacity="1.000" stroke-linecap="round" stroke-linejoin="round" d="M -82.864 745.929 Q -82.890 745.762 -82.913 745.458 Q -82.935 745.153 -82.953 744.710 Q -82.971 744.267 -82.982 743.968 Q -82.994 743.668 -83.001 743.435 Q -83.009 743.203 -83.020 742.903 Q -83.031 742.603 -83.040 742.395 Q -83.049 742.187 -83.056 741.891 Q -83.064 741.595 -83.072 741.142 Q -83.081 740.690 -83.089 740.324 Q -83.096 739.959 -83.107 739.541 Q -83.118 739.123 -83.119 738.683 Q -83.120 738.242 -83.122 737.874 Q -83.123 737.506 -83.125 737.212 Q -83.126 736.917 -83.128 736.573 Q -83.130 736.230 -83.132 735.925 Q -83.134 735.621 -83.137 735.223 Q -83.139 734.825 -83.142 734.406 Q -83.145 733.986 -83.148 733.665 Q -83.150 733.343 -83.153 732.980 Q -83.156 732.618 -83.158 732.207 Q -83.159 731.797 -83.160 731.340 Q -83.161 730.882 -83.162 730.611 Q -83.162 730.340 -83.161 730.214 Q -83.161 730.088 -83.152 729.597 Q -83.144 729.105 -83.133 728.506 Q -83.123 727.906 -83.119 727.812 Q -83.115 727.718 -83.112 727.420 Q -83.109 727.122 -83.105 726.588 Q -83.101 726.054 -83.099 725.644 Q -83.097 725.233 -83.095 724.802 Q -83.093 724.371 -83.097 723.795 Q -83.102 723.219 -83.103 722.851 Q -83.105 722.482 -83.106 722.188 Q -83.108 721.895 -83.109 721.553 Q -83.111 721.211 -83.113 720.924 Q -83.114 720.636 -83.116 720.287 Q -83.117 719.938 -83.125 719.517 Q -83.133 719.096 -83.138 718.735 Q -83.142 718.374 -83.146 717.931 Q -83.149 717.489 -83.152 717.096 Q -83.155 716.703 -83.157 716.359 Q -83.160 716.016 -83.160 715.687 Q -83.160 715.357 -83.159 715.042 Q -83.157 714.728 -83.154 714.370 Q -83.151 714.012 -83.146 713.612 Q -83.142 713.212 -83.137 712.875 Q -83.132 712.538 -83.123 712.127 Q -83.115 711.717 -83.096 711.277 Q -83.077 710.838 -83.050 710.301 Q -83.023 709.765 -82.996 709.354 Q -82.968 708.943 -82.940 708.522 Q -82.911 708.101 -82.877 707.689 Q -82.842 707.278 -82.810 706.951 Q -82.778 706.625 -82.737 706.247 Q -82.695 705.869 -82.653 705.526 Q -82.610 705.184 -82.544 704.723 Q -82.479 704.262 -82.419 703.897 Q -82.359 703.532 -82.288 703.156 Q -82.218 702.781 -82.158 702.466 Q -82.097 702.151 -82.023 701.771 Q -81.949 701.392 -81.888 701.080 Q -81.826 700.768 -81.752 700.402 Q -81.678 700.036 -81.602 699.709 Q -81.527 699.383 -81.467 699.153 Q -81.406 698.922 -81.302 698.578 Q -81.198 698.234 -81.031 697.698 Q -80.863 697.163 -80.749 696.809 Q -80.634 696.454 -80.571 696.281 Q -80.509 696.107 -80.402 695.834 Q -80.296 695.561 -80.145 695.187 Q -79.994 694.814 -79.840 694.451 Q -79.686 694.088 -79.528 693.735 Q -79.370 693.383 -79.190 693.006 Q -79.009 692.630 -78.806 692.229 Q -78.603 691.828 -78.412 691.467 Q -78.221 691.105 -78.042 690.782 Q -77.863 690.460 -77.683 690.147 Q -77.502 689.835 -77.321 689.533 Q -77.139 689.232 -76.942 688.913 Q -76.745 688.595 -76.532 688.260 Q -76.319 687.925 -76.143 687.657 Q -75.967 687.390 -75.759 687.089 Q -75.551 686.789 -75.352 686.519 Q -75.153 686.248 -74.864 685.866 Q -74.574 685.484 -74.426 685.293 Q -74.278 685.103 -74.101 684.886 Q -73.924 684.669 -73.668 684.363 Q -73.413 684.057 -73.192 683.801 Q -72.972 683.545 -72.694 683.236 Q -72.415 682.928 -72.150 682.650 Q -71.885 682.372 -71.634 682.127 Q -71.382 681.882 -71.056 681.576 Q -70.730 681.270 -70.459 681.023 Q -70.188 680.776 -69.865 680.494 Q -69.541 680.212 -69.270 679.991 Q -68.998 679.769 -68.733 679.564 Q -68.468 679.358 -68.119 679.095 Q -67.770 678.831 -67.430 678.583 Q -67.090 678.334 -66.760 678.101 Q -66.430 677.867 -66.158 677.679 Q -65.886 677.491 -65.672 677.350 Q -65.458 677.208 -65.111 676.986 Q -64.763 676.764 -64.283 676.463 Q -63.802 676.161 -63.451 675.944 Q -63.101 675.728 -62.881 675.596 Q -62.660 675.464 -62.371 675.300 Q -62.082 675.136 -61.724 674.940 Q -61.366 674.744 -60.911 674.517 Q -60.456 674.290 -59.904 674.032 Q -59.353 673.774 -58.925 673.587 Q -58.497 673.400 -58.194 673.284 Q -57.890 673.168 -57.571 673.056 Q -57.252 672.944 -56.917 672.835 Q -56.582 672.727 -56.244 672.627 Q -55.906 672.527 -55.564 672.435 Q -55.222 672.344 -54.933 672.271 Q -54.644 672.197 -54.290 672.113 Q -53.936 672.029 -53.754 671.993 Q -53.573 671.957 -53.183 671.877 Q -52.793 671.796 -52.191 671.675 Q -51.589 671.555 -51.388 671.518 Q -51.188 671.482 -50.706 671.397 Q -50.223 671.311 -49.894 671.254 Q -49.565 671.198 -49.229 671.142 Q -48.894 671.086 -48.603 671.039 Q -48.313 670.992 -48.068 670.954 Q -47.823 670.916 -47.461 670.861 Q -47.099 670.805 -46.620 670.733 Q -46.141 670.660 -45.747 670.604 Q -45.353 670.547 -44.890 670.487 Q -44.426 670.427 -44.001 670.387 Q -43.576 670.346 -43.246 670.315 Q -42.916 670.284 -42.370 670.245 Q -41.825 670.207 -41.474 670.189 Q -41.124 670.171 -40.649 670.148 Q -40.174 670.125 -40.049 670.121 Q -39.924 670.118 -39.651 670.106 Q -39.378 670.095 -38.916 670.075 Q -38.454 670.055 -37.995 670.041 Q -37.537 670.026 -37.083 670.017 Q -36.629 670.008 -36.249 670.001 Q -35.869 669.994 -35.564 669.990 Q -35.258 669.985 -34.874 669.981 Q -34.489 669.977 -34.026 669.975 Q -33.562 669.972 -33.114 669.969 Q -32.666 669.965 -32.234 669.961 Q -31.802 669.958 -31.377 669.954 Q -30.952 669.950 -30.533 669.947 Q -30.115 669.943 -29.893 669.941 Q -29.672 669.938 -29.635 669.937 Q -29.598 669.935 -29.104 669.926 Q -28.610 669.917 -28.129 669.911 Q -27.648 669.905 -27.015 669.899 Q -26.382 669.893 -25.887 669.891 Q -25.393 669.890 -24.992 669.892 Q -24.592 669.895 -24.146 669.899 Q -23.701 669.903 -23.077 669.909 Q -22.453 669.915 -21.987 669.921 Q -21.521 669.927 -21.058 669.936 Q -20.596 669.945 -20.453 669.947 Q -20.309 669.949 -20.003 669.956 Q -19.698 669.963 -19.182 669.976 Q -18.666 669.989 -18.371 669.996 Q -18.077 670.003 -18.004 670.004 Q -17.930 670.005 -17.713 670.011 Q -17.495 670.016 -17.134 670.026 Q -16.773 670.035 -16.402 670.043 Q -16.030 670.051 -15.650 670.057 Q -15.269 670.064 -14.967 670.067 Q -14.665 670.071 -14.329 670.072 Q -13.994 670.073 -13.532 670.075 Q -13.070 670.076 -12.683 670.078 Q -12.296 670.079 -11.829 670.081 Q -11.363 670.083 -10.990 670.085 Q -10.616 670.086 -10.197 670.088 Q -9.777 670.090 -9.498 670.092 Q -9.219 670.094 -8.788 670.097 Q -8.356 670.100 -8.031 670.104 Q -7.707 670.107 -7.347 670.113 Q -6.986 670.118 -6.675 670.124 Q -6.363 670.130 -5.970 670.139 Q -5.577 670.149 -5.138 670.163 Q -4.700 670.176 -4.349 670.188 Q -3.998 670.200 -3.588 670.214 Q -3.178 670.228 -2.862 670.239 Q -2.545 670.250 -2.210 670.262 Q -1.876 670.274 -1.765 670.277 Q -1.655 670.281 -1.298 670.301 Q -0.941 670.320 -0.460 670.352 Q 0.022 670.384 0.367 670.411 Q 0.712 670.439 1.080 670.473 Q 1.449 670.506 2.051 670.563 Q 2.653 670.619 3.488 670.698 Q 3.520 670.704 3.780 670.734 Q 4.039 670.765 4.291 670.794 Q 4.543 670.823 4.874 670.861 Q 5.204 670.899 5.490 670.933 Q 5.776 670.968 6.138 671.013 Q 6.501 671.059 6.844 671.110 Q 7.188 671.161 7.493 671.212 Q 7.797 671.263 8.178 671.330 Q 8.559 671.397 8.929 671.469 Q 9.299 671.542 9.658 671.619 Q 10.017 671.696 10.536 671.826 Q 11.056 671.956 11.735 672.138 Q 12.260 672.311 12.716 672.477 Q 13.172 672.643 13.559 672.802 Q 13.947 672.961 14.257 673.098 Q 14.567 673.235 14.916 673.408 Q 15.264 673.581 15.505 673.709 Q 15.745 673.836 16.078 674.034 Q 16.410 674.231 16.800 674.470 Q 17.190 674.710 17.550 674.943 Q 17.910 675.177 18.372 675.484 Q 18.833 675.791 19.259 676.084 Q 19.685 676.376 20.075 676.654 Q 20.466 676.932 20.750 677.138 Q 21.035 677.345 21.300 677.551 Q 21.566 677.756 21.874 677.999 Q 22.181 678.241 22.373 678.402 Q 22.566 678.563 22.835 678.785 Q 23.104 679.006 23.350 679.222 Q 23.596 679.438 23.903 679.725 Q 24.210 680.013 24.528 680.321 Q 24.847 680.630 25.176 680.976 Q 25.506 681.322 25.951 681.809 Q 26.397 682.296 26.699 682.639 Q 27.001 682.982 27.240 683.279 Q 27.480 683.575 27.491 683.586 Q 27.502 683.597 27.686 683.841 Q 27.870 684.085 28.222 684.572 Q 28.573 685.058 28.871 685.489 Q 29.170 685.921 29.416 686.295 Q 29.663 686.670 29.887 687.017 Q 30.111 687.364 30.314 687.681 Q 30.517 687.999 30.706 688.307 Q 30.894 688.614 31.071 688.909 Q 31.247 689.204 31.394 689.456 Q 31.540 689.708 31.716 690.022 Q 31.891 690.336 32.071 690.675 Q 32.251 691.014 32.333 691.171 Q 32.416 691.327 32.541 691.585 Q 32.665 691.843 32.859 692.256 Q 33.053 692.670 33.165 692.910 Q 33.277 693.149 33.307 693.216 Q 33.336 693.283 33.435 693.529 Q 33.533 693.776 33.701 694.202 Q 33.870 694.628 33.968 694.876 Q 34.066 695.123 34.106 695.224 Q 34.145 695.326 34.268 695.692 Q 34.391 696.059 34.552 696.548 Q 34.712 697.037 34.850 697.486 Q 34.989 697.935 35.023 698.038 Q 35.057 698.141 35.142 698.439 Q 35.227 698.736 35.290 698.989 Q 35.354 699.241 35.428 699.549 Q 35.502 699.856 35.609 700.302 Q 35.716 700.749 35.796 701.107 Q 35.876 701.465 35.953 701.870 Q 36.030 702.274 36.085 702.613 Q 36.139 702.951 36.200 703.445 Q 36.262 703.940 36.309 704.431 Q 36.355 704.922 36.408 705.576 Q 36.461 706.229 36.496 706.721 Q 36.531 707.214 36.554 707.712 Q 36.578 708.211 36.596 708.830 Q 36.614 709.448 36.616 709.463 Q 36.617 709.478 36.622 710.076 Q 36.626 710.675 36.627 711.141 Q 36.627 711.606 36.626 711.972 Q 36.625 712.337 36.623 712.758 Q 36.620 713.178 36.618 713.519 Q 36.615 713.860 36.612 714.254 Q 36.609 714.648 36.609 714.967 Q 36.609 715.287 36.607 715.655 Q 36.605 716.024 36.608 716.324 Q 36.610 716.625 36.615 716.925 Q 36.620 717.225 36.627 717.623 Q 36.635 718.022 36.640 718.332 Q 36.645 718.642 36.651 718.973 Q 36.656 719.305 36.663 719.598 Q 36.670 719.890 36.682 720.218 Q 36.693 720.547 36.701 720.869 Q 36.709 721.191 36.715 721.616 Q 36.722 722.041 36.726 722.440 Q 36.729 722.840 36.730 723.215 Q 36.731 723.590 36.732 723.929 Q 36.732 724.268 36.732 724.722 Q 36.732 725.177 36.730 725.274 Q 36.728 725.372 36.724 725.583 Q 36.720 725.793 36.715 726.149 Q 36.709 726.505 36.703 726.828 Q 36.697 727.151 36.691 727.441 Q 36.685 727.731 36.677 728.047 Q 36.670 728.363 36.662 728.706 Q 36.654 729.048 36.646 729.374 Q 36.637 729.699 36.628 730.007 Q 36.620 730.315 36.608 730.675 Q 36.597 731.034 36.582 731.444 Q 36.568 731.855 36.552 732.304 Q 36.536 732.753 36.519 733.241 Q 36.501 733.730 36.484 734.159 Q 36.467 734.588 36.451 734.958 Q 36.434 735.327 36.422 735.630 Q 36.410 735.932 36.397 736.283 Q 36.384 736.635 36.378 736.893 Q 36.371 737.151 36.365 737.322 Q 36.358 737.492 36.351 737.812 Q 36.343 738.131 36.338 738.405 Q 36.333 738.680 36.329 739.015 Q 36.324 739.351 36.322 739.653 Q 36.320 739.954 36.321 740.222 Q 36.321 740.490 36.324 740.808 Q 36.327 741.126 36.332 741.494 Q 36.337 741.861 36.340 742.062 Q 36.343 742.262 36.344 742.311 Q 36.345 742.361 36.349 742.809 Q 36.352 743.258 36.353 743.670 Q 36.355 744.082 36.355 744.607 Q 36.356 745.132 36.354 745.549 Q 36.353 745.966 36.350 746.275 Q 36.347 746.583 36.344 746.904 Q 36.341 747.224 36.339 747.556 Q 36.337 747.888 36.334 748.257 Q 36.330 748.625 36.327 749.031 Q 36.323 749.436 36.318 749.818 Q 36.314 750.201 36.310 750.561 Q 36.305 750.921 36.301 751.180 Q 36.297 751.440 36.294 751.598 Q 36.290 751.757 36.284 752.032 Q 36.277 752.307 36.268 752.698 Q 36.258 753.090 36.246 753.438 Q 36.234 753.786 36.220 754.091 Q 36.206 754.396 36.181 754.776 Q 36.156 755.157 36.120 755.612 Q 36.084 756.068 36.052 756.434 Q 36.020 756.800 35.992 757.077 Q 35.965 757.354 35.923 757.673 Q 35.882 757.992 35.827 758.354 Q 35.772 758.715 35.713 759.070 Q 35.653 759.424 35.589 759.772 Q 35.525 760.120 35.458 760.442 Q 35.390 760.763 35.285 761.206 Q 35.180 761.648 35.067 762.051 Q 34.955 762.454 34.863 762.754 Q 34.771 763.054 34.661 763.385 Q 34.552 763.716 34.425 764.072 Q 34.297 764.427 34.150 764.807 Q 34.004 765.187 33.881 765.491 Q 33.759 765.795 33.659 766.022 Q 33.560 766.250 33.436 766.517 Q 33.311 766.785 33.162 767.091 Q 33.012 767.398 32.825 767.758 Q 32.638 768.118 32.414 768.532 Q 32.190 768.945 31.941 769.385 Q 31.692 769.825 31.418 770.292 Q 31.144 770.758 30.941 771.096 Q 30.738 771.434 30.605 771.644 Q 30.473 771.854 30.290 772.132 Q 30.106 772.410 29.872 772.757 Q 29.637 773.103 29.499 773.309 Q 29.360 773.514 29.295 773.610 Q 29.229 773.706 29.115 773.862 Q 29.000 774.019 28.833 774.234 Q 28.666 774.448 28.409 774.773 Q 28.152 775.098 27.965 775.330 Q 27.777 775.563 27.601 775.774 Q 27.424 775.985 27.145 776.301 Q 26.865 776.617 26.546 776.961 Q 26.227 777.305 25.993 777.543 Q 25.758 777.780 25.488 778.037 Q 25.218 778.294 24.990 778.501 Q 24.761 778.709 24.483 778.953 Q 24.206 779.198 24.041 779.341 Q 23.877 779.484 23.824 779.526 Q 23.772 779.568 23.602 779.707 Q 23.433 779.845 23.146 780.079 Q 22.860 780.314 22.652 780.482 Q 22.444 780.650 22.249 780.802 Q 22.055 780.954 21.694 781.219 Q 21.334 781.484 21.052 781.681 Q 20.770 781.878 20.448 782.095 Q 20.125 782.312 19.828 782.507 Q 19.530 782.703 19.258 782.877 Q 18.986 783.052 18.641 783.258 Q 18.295 783.465 17.876 783.705 Q 17.457 783.945 17.116 784.133 Q 16.776 784.321 16.384 784.524 Q 15.992 784.728 15.674 784.887 Q 15.356 785.047 15.098 785.170 Q 14.841 785.293 14.538 785.432 Q 14.235 785.571 14.036 785.661 Q 13.838 785.751 13.744 785.792 Q 13.650 785.833 13.416 785.927 Q 13.182 786.020 12.807 786.167 Q 12.433 786.313 12.107 786.437 Q 11.782 786.561 11.506 786.663 Q 11.231 786.764 10.928 786.870 Q 10.625 786.976 10.294 787.088 Q 9.964 787.200 9.726 787.279 Q 9.489 787.357 9.273 787.426 Q 9.057 787.494 8.515 787.653 Q 7.974 787.811 7.539 787.934 Q 7.105 788.056 6.639 788.181 Q 6.173 788.306 5.816 788.394 Q 5.460 788.483 5.056 788.577 Q 4.653 788.671 4.292 788.753 Q 3.931 788.835 3.453 788.940 Q 2.975 789.045 2.541 789.129 Q 2.108 789.214 1.744 789.273 Q 1.381 789.332 0.942 789.393 Q 0.504 789.454 0.129 789.503 Q -0.245 789.552 -0.711 789.605 Q -1.177 789.659 -1.833 789.720 Q -2.489 789.780 -2.935 789.817 Q -3.381 789.854 -3.732 789.873 Q -4.083 789.892 -4.409 789.906 Q -4.735 789.919 -5.181 789.934 Q -5.627 789.949 -6.303 789.969 Q -6.978 789.989 -7.522 790.001 Q -8.066 790.014 -8.684 790.023 Q -9.302 790.031 -9.910 790.031 Q -10.518 790.031 -10.872 790.033 Q -11.226 790.035 -11.715 790.028 Q -12.204 790.021 -12.589 790.020 Q -12.974 790.018 -13.419 790.020 Q -13.864 790.022 -14.215 790.025 Q -14.566 790.029 -14.824 790.034 Q -15.081 790.040 -15.481 790.054 Q -15.881 790.068 -16.424 790.089 Q -16.967 790.110 -17.488 790.126 Q -18.009 790.142 -18.507 790.154 Q -19.005 790.165 -19.317 790.172 Q -19.629 790.178 -19.817 790.182 Q -20.006 790.186 -20.404 790.187 Q -20.801 790.188 -21.182 790.189 Q -21.563 790.189 -22.059 790.188 Q -22.555 790.187 -22.819 790.186 Q -23.083 790.184 -23.115 790.183 Q -23.146 790.182 -23.372 790.180 Q -23.597 790.178 -24.016 790.173 Q -24.435 790.169 -24.740 790.166 Q -25.045 790.162 -25.332 790.159 Q -25.620 790.156 -26.140 790.137 Q -26.660 790.118 -26.975 790.108 Q -27.290 790.098 -27.568 790.089 Q -27.847 790.079 -28.194 790.067 Q -28.541 790.055 -28.991 790.040 Q -29.441 790.024 -29.994 790.004 Q -30.546 789.984 -30.976 789.969 Q -31.406 789.954 -31.869 789.937 Q -32.331 789.920 -32.531 789.911 Q -32.732 789.902 -33.080 789.889 Q -33.429 789.877 -33.823 789.867 Q -34.216 789.857 -34.551 789.848 Q -34.885 789.840 -35.292 789.831 Q -35.698 789.822 -36.030 789.815 Q -36.361 789.808 -36.747 789.800 Q -37.132 789.792 -37.377 789.790 Q -37.622 789.788 -37.898 789.785 Q -38.174 789.781 -38.561 789.776 Q -38.948 789.770 -39.380 789.766 Q -39.811 789.761 -40.287 789.758 Q -40.762 789.754 -41.127 789.753 Q -41.492 789.752 -41.875 789.754 Q -42.257 789.755 -42.783 789.746 Q -43.310 789.737 -43.767 789.723 Q -44.224 789.709 -44.776 789.678 Q -45.327 789.648 -45.724 789.620 Q -46.121 789.591 -46.425 789.569 Q -46.730 789.546 -47.075 789.519 Q -47.420 789.492 -47.696 789.471 Q -47.971 789.450 -48.282 789.425 Q -48.592 789.401 -48.797 789.383 Q -49.003 789.365 -49.590 789.297 Q -50.178 789.229 -50.667 789.167 Q -51.156 789.105 -51.617 789.039 Q -52.078 788.972 -52.416 788.918 Q -52.753 788.863 -53.120 788.799 Q -53.487 788.735 -53.747 788.686 Q -54.008 788.637 -54.237 788.585 Q -54.467 788.534 -54.731 788.460 Q -54.995 788.385 -55.297 788.293 Q -55.600 788.200 -56.029 788.064 Q -56.458 787.927 -56.751 787.829 Q -57.044 787.730 -57.201 787.669 Q -57.358 787.607 -57.615 787.493 Q -57.872 787.379 -58.229 787.212 Q -58.587 787.045 -58.946 786.859 Q -59.305 786.674 -59.666 786.469 Q -60.026 786.264 -60.386 786.055 Q -60.746 785.846 -61.105 785.633 Q -61.465 785.419 -61.855 785.183 Q -62.246 784.947 -62.668 784.688 Q -63.090 784.429 -63.381 784.249 Q -63.673 784.070 -63.912 783.919 Q -64.152 783.768 -64.658 783.435 Q -65.164 783.102 -65.644 782.770 Q -66.124 782.438 -66.492 782.170 Q -66.860 781.903 -67.264 781.607 Q -67.668 781.312 -67.789 781.218 Q -67.910 781.125 -68.081 780.988 Q -68.252 780.850 -68.514 780.638 Q -68.775 780.426 -68.978 780.259 Q -69.182 780.091 -69.399 779.908 Q -69.616 779.724 -69.988 779.385 Q -70.361 779.047 -70.578 778.841 Q -70.796 778.635 -71.046 778.389 Q -71.296 778.143 -71.652 777.788 Q -72.007 777.434 -72.249 777.186 Q -72.492 776.938 -72.685 776.727 Q -72.878 776.516 -73.171 776.189 Q -73.463 775.863 -73.492 775.836 Q -73.521 775.809 -73.802 775.470 Q -74.083 775.130 -74.298 774.857 Q -74.512 774.584 -74.753 774.265 Q -74.994 773.945 -75.160 773.723 Q -75.327 773.501 -75.466 773.315 Q -75.604 773.128 -75.981 772.584 Q -76.358 772.039 -76.630 771.628 Q -76.903 771.216 -77.129 770.850 Q -77.354 770.484 -77.529 770.186 Q -77.703 769.889 -77.901 769.539 Q -78.099 769.189 -78.298 768.812 Q -78.497 768.436 -78.696 768.035 Q -78.896 767.633 -79.055 767.292 Q -79.215 766.952 -79.335 766.674 Q -79.455 766.395 -79.582 766.091 Q -79.709 765.787 -79.843 765.456 Q -79.978 765.126 -80.053 764.940 Q -80.128 764.755 -80.152 764.695 Q -80.176 764.635 -80.374 764.068 Q -80.571 763.500 -80.747 762.915 Q -80.923 762.330 -80.988 762.109 Q -81.052 761.888 -81.173 761.421 Q -81.293 760.954 -81.354 760.709 Q -81.414 760.464 -81.478 760.148 Q -81.542 759.833 -81.596 759.557 Q -81.650 759.282 -81.715 758.943 Q -81.780 758.603 -81.834 758.305 Q -81.889 758.007 -81.956 757.622 Q -82.022 757.237 -82.076 756.847 Q -82.129 756.456 -82.169 756.134 Q -82.209 755.812 -82.253 755.429 Q -82.297 755.046 -82.319 754.849 Q -82.342 754.653 -82.345 754.639 Q -82.347 754.625 -82.399 754.078 Q -82.451 753.532 -82.485 753.080 Q -82.519 752.628 -82.537 752.336 Q -82.554 752.043 -82.572 751.749 Q -82.589 751.454 -82.611 751.060 Q -82.633 750.666 -82.652 750.318 Q -82.671 749.970 -82.694 749.517 Q -82.718 749.063 -82.743 748.492 Q -82.768 747.921 -82.775 747.765 Q -82.783 747.609 -82.797 746.995 Q -82.811 746.381 -82.820 746.086 Q -82.830 745.790 -82.829 745.726 Q -82.829 745.663 -82.837 745.488 Q -82.845 745.314 -82.861 744.531 "></path>
  </g>
  <g id="New_Layer_3" opacity="1.000">
    <path id="STROKE_5b6dd26f-4ff7-4431-991a-52dca6fc99ae" opacity="1.000" fill="#ffffff" stroke="#ffffff" stroke-width="0.000" stroke-opacity="1.000" stroke-linecap="round" stroke-linejoin="round" d="M -28.903 707.893 Q -29.166 707.882 -29.223 707.882 Q -29.281 707.883 -29.374 707.876 Q -29.467 707.868 -30.240 707.611 L -30.346 707.564 L -30.482 707.508 Q -30.543 707.495 -30.602 707.423 Q -30.627 707.400 -30.858 707.151 Q -31.090 706.902 -31.385 706.542 Q -31.681 706.182 -31.914 705.892 Q -32.147 705.601 -32.438 705.188 Q -32.728 704.775 -32.974 704.375 Q -33.220 703.975 -33.616 703.236 Q -34.012 702.498 -34.299 701.799 Q -34.585 701.101 -34.729 700.615 Q -34.873 700.129 -35.116 699.215 Q -35.359 698.301 -35.575 697.607 Q -35.790 696.914 -36.007 696.157 Q -36.223 695.400 -36.333 694.384 Q -36.443 693.368 -36.449 692.969 Q -36.454 692.571 -36.417 691.915 Q -36.380 691.260 -36.241 690.656 Q -36.102 690.051 -35.717 689.377 Q -35.332 688.703 -35.023 688.356 Q -34.714 688.008 -34.354 687.704 Q -33.993 687.400 -33.146 686.983 Q -32.299 686.566 -31.247 686.204 Q -30.194 685.841 -29.363 685.630 Q -28.533 685.419 -28.024 685.322 Q -27.514 685.226 -26.660 685.070 Q -25.806 684.914 -24.598 684.770 Q -23.390 684.626 -22.773 684.577 Q -22.156 684.528 -21.112 684.532 Q -20.069 684.535 -18.792 684.643 Q -17.516 684.751 -16.585 684.918 Q -15.655 685.084 -15.041 685.223 Q -14.427 685.362 -13.826 685.510 Q -13.226 685.657 -12.705 685.820 Q -12.185 685.982 -11.892 686.075 Q -11.600 686.168 -10.806 686.457 Q -10.011 686.746 -9.626 686.913 Q -9.241 687.079 -9.048 687.176 Q -8.854 687.272 -8.677 687.370 Q -8.499 687.467 -8.213 687.638 Q -7.926 687.809 -7.684 687.947 Q -7.442 688.084 -6.667 688.573 Q -5.892 689.061 -5.323 689.521 Q -4.753 689.981 -4.313 690.437 Q -3.873 690.893 -3.712 691.088 Q -3.551 691.283 -3.147 691.765 Q -2.744 692.247 -2.445 692.559 Q -2.146 692.871 -1.884 693.117 Q -1.621 693.363 -1.105 693.882 Q -0.588 694.402 -0.065 695.013 Q 0.457 695.625 1.235 696.795 Q 2.013 697.966 2.537 698.839 Q 3.061 699.712 3.324 700.191 Q 3.586 700.671 3.785 701.041 Q 3.983 701.411 4.439 702.546 Q 4.895 703.681 5.106 704.373 Q 5.316 705.064 5.489 705.807 Q 5.662 706.549 6.039 708.147 Q 6.417 709.745 6.661 710.815 Q 6.904 711.884 7.039 712.777 Q 7.174 713.669 7.239 714.247 Q 7.304 714.826 7.421 716.591 Q 7.537 718.356 7.558 719.288 Q 7.579 720.219 7.555 720.728 Q 7.532 721.238 7.514 721.464 Q 7.496 721.690 7.341 722.778 Q 7.186 723.867 6.976 724.958 Q 6.766 726.049 6.302 727.954 Q 5.838 729.860 5.516 731.043 Q 5.195 732.225 4.725 733.549 Q 4.255 734.874 3.954 735.601 Q 3.653 736.328 3.497 736.722 Q 3.341 737.116 2.846 738.334 Q 2.351 739.553 2.047 740.224 Q 1.743 740.896 1.164 742.078 Q 0.585 743.260 -0.458 745.166 Q -1.500 747.071 -2.138 748.239 Q -2.775 749.407 -3.055 749.957 Q -3.335 750.507 -3.617 751.061 Q -3.899 751.615 -4.136 752.083 Q -4.373 752.552 -5.123 753.940 Q -5.872 755.328 -6.307 756.093 Q -6.742 756.857 -7.224 757.731 Q -7.707 758.605 -7.956 759.052 Q -8.205 759.498 -8.355 759.768 Q -8.505 760.039 -9.045 760.939 Q -9.585 761.839 -9.976 762.460 Q -10.366 763.081 -10.938 764.013 Q -11.510 764.945 -12.416 766.236 Q -13.322 767.527 -13.888 768.334 Q -14.454 769.141 -14.796 769.612 Q -15.138 770.084 -15.484 770.507 Q -15.829 770.930 -16.602 771.855 Q -17.376 772.781 -17.955 773.324 Q -18.534 773.868 -19.080 774.313 Q -19.626 774.757 -20.287 775.239 Q -20.949 775.721 -21.578 776.096 Q -22.207 776.471 -22.689 776.659 Q -23.172 776.846 -23.632 776.913 Q -24.093 776.980 -24.647 776.867 Q -25.201 776.753 -25.483 776.624 Q -25.764 776.495 -26.170 776.164 Q -26.576 775.834 -26.816 775.558 Q -27.057 775.283 -27.550 774.483 Q -28.044 773.684 -28.601 772.472 Q -29.157 771.261 -29.478 770.264 Q -29.798 769.268 -29.969 768.422 Q -30.141 767.577 -30.264 766.594 Q -30.388 765.610 -30.442 765.022 Q -30.495 764.433 -30.559 763.575 Q -30.623 762.716 -30.742 761.150 Q -30.861 759.585 -30.911 758.522 Q -30.961 757.460 -30.973 756.854 Q -30.985 756.249 -31.024 754.822 Q -31.063 753.396 -31.134 752.459 Q -31.206 751.523 -31.297 749.897 Q -31.388 748.271 -31.413 747.362 Q -31.437 746.453 -31.434 744.751 Q -31.430 743.050 -31.404 742.095 Q -31.379 741.139 -31.201 739.871 Q -31.022 738.603 -30.558 736.882 Q -30.094 735.161 -29.634 733.898 Q -29.173 732.635 -28.663 731.645 Q -28.154 730.655 -27.871 730.154 Q -27.589 729.653 -27.296 729.104 Q -27.003 728.554 -26.764 728.114 Q -26.525 727.675 -26.325 727.314 Q -26.124 726.953 -25.919 726.575 Q -25.714 726.197 -25.539 725.851 Q -25.364 725.504 -25.267 725.298 Q -25.171 725.092 -25.006 724.730 Q -24.841 724.367 -24.731 724.106 Q -24.620 723.845 -24.496 723.510 Q -24.372 723.174 -24.311 722.993 Q -24.250 722.811 -24.090 722.327 Q -23.931 721.843 -23.861 721.590 Q -23.791 721.337 -23.712 721.017 Q -23.633 720.696 -23.580 720.444 Q -23.527 720.191 -23.496 720.055 Q -23.464 719.919 -23.413 719.590 Q -23.361 719.261 -23.336 719.011 Q -23.311 718.762 -23.267 718.395 Q -23.223 718.028 -23.203 717.881 Q -23.184 717.733 -23.157 717.447 Q -23.130 717.160 -23.125 716.815 Q -23.119 716.470 -23.136 716.111 Q -23.153 715.753 -23.187 715.389 Q -23.220 715.026 -23.327 714.474 Q -23.434 713.922 -23.524 713.604 Q -23.613 713.285 -23.633 713.224 Q -23.653 713.162 -23.675 713.120 Q -23.697 713.078 -23.900 712.708 "></path>
    <path id="STROKE_f7733d27-3f54-4c7a-89b9-5cee50b93ea7" opacity="1.000" fill="#ffffff" stroke="#ffffff" stroke-width="0.000" stroke-opacity="1.000" stroke-linecap="round" stroke-linejoin="round" d="M -28.760 709.200 L -28.778 709.108 Q -28.780 709.064 -28.823 708.935 Q -28.865 708.805 -28.952 708.606 Q -29.038 708.406 -29.130 708.131 Q -29.222 707.856 -29.277 707.676 Q -29.333 707.496 -29.366 707.365 Q -29.399 707.234 -29.544 706.698 Q -29.689 706.161 -29.921 705.479 Q -30.152 704.797 -30.332 704.280 Q -30.513 703.764 -30.729 702.997 Q -30.945 702.230 -31.273 700.882 Q -31.601 699.534 -31.819 698.809 Q -32.038 698.083 -32.206 697.636 Q -32.373 697.190 -32.672 696.563 Q -32.971 695.937 -33.237 695.338 Q -33.504 694.740 -33.667 694.313 Q -33.831 693.887 -33.913 693.675 Q -33.994 693.463 -34.118 693.153 Q -34.242 692.843 -34.347 692.555 Q -34.453 692.266 -34.600 691.751 Q -34.747 691.237 -34.882 690.885 Q -35.017 690.533 -35.140 690.331 Q -35.262 690.130 -35.386 690.005 Q -35.509 689.880 -35.650 689.777 Q -35.790 689.674 -35.943 689.595 Q -36.096 689.517 -36.195 689.483 Q -36.294 689.448 -36.496 689.425 Q -36.697 689.401 -36.927 689.433 Q -37.157 689.466 -37.364 689.525 Q -37.570 689.584 -37.759 689.660 Q -37.947 689.737 -37.994 689.754 Q -38.041 689.772 -38.729 690.176 Q -39.416 690.581 -40.478 691.697 Q -41.541 692.812 -42.238 693.716 Q -42.936 694.621 -43.616 695.553 Q -44.297 696.486 -44.592 696.927 Q -44.887 697.369 -45.367 698.396 Q -45.846 699.423 -46.109 700.212 Q -46.372 701.002 -46.498 701.384 Q -46.625 701.765 -47.092 703.444 Q -47.560 705.123 -47.818 706.430 Q -48.076 707.737 -48.205 708.633 Q -48.333 709.528 -48.382 709.977 Q -48.432 710.425 -48.494 711.047 Q -48.555 711.668 -48.617 712.808 Q -48.678 713.948 -48.681 716.010 Q -48.685 718.071 -48.589 719.572 Q -48.494 721.072 -48.395 721.792 Q -48.296 722.512 -48.216 722.950 Q -48.136 723.388 -47.676 725.112 Q -47.216 726.836 -46.849 728.053 Q -46.481 729.270 -46.225 730.151 Q -45.968 731.032 -45.807 731.607 Q -45.647 732.182 -44.850 734.702 Q -44.054 737.223 -43.298 739.489 Q -42.543 741.756 -42.179 742.880 Q -41.814 744.003 -41.478 744.958 Q -41.142 745.913 -40.836 746.656 Q -40.531 747.400 -40.316 747.856 Q -40.101 748.312 -39.525 749.303 Q -38.948 750.294 -38.221 751.367 Q -37.494 752.441 -37.051 753.110 Q -36.608 753.779 -36.408 754.088 Q -36.208 754.397 -36.098 754.576 Q -35.987 754.754 -35.638 755.320 Q -35.289 755.887 -35.091 756.219 Q -34.893 756.551 -34.364 757.327 Q -33.835 758.102 -33.501 758.512 Q -33.168 758.922 -32.682 759.437 Q -32.196 759.952 -31.766 760.353 Q -31.337 760.754 -30.906 761.079 Q -30.476 761.404 -29.837 761.733 Q -29.199 762.061 -28.663 762.218 Q -28.127 762.376 -27.798 762.429 Q -27.470 762.483 -27.010 762.483 Q -26.551 762.484 -26.057 762.341 Q -25.564 762.198 -25.146 761.912 Q -24.728 761.626 -24.548 761.458 Q -24.367 761.290 -24.079 760.955 Q -23.790 760.619 -23.380 759.941 Q -22.970 759.263 -22.740 758.696 Q -22.511 758.130 -22.297 757.315 Q -22.082 756.500 -21.978 756.006 Q -21.874 755.513 -21.622 754.282 Q -21.370 753.051 -21.179 751.815 Q -20.989 750.579 -20.961 748.516 Q -20.934 746.452 -21.009 745.174 Q -21.084 743.895 -21.193 742.991 Q -21.302 742.088 -21.393 741.073 Q -21.484 740.058 -21.521 739.214 Q -21.559 738.371 -21.634 736.982 Q -21.710 735.593 -21.741 734.205 Q -21.772 732.817 -21.779 732.162 Q -21.787 731.508 -21.824 731.081 Q -21.860 730.655 -21.968 730.117 Q -22.076 729.580 -22.206 729.070 Q -22.337 728.561 -22.450 728.259 Q -22.563 727.956 -22.625 727.821 Q -22.687 727.686 -22.844 727.417 Q -23.001 727.148 -23.258 726.752 Q -23.515 726.356 -23.650 726.171 Q -23.785 725.986 -23.952 725.797 Q -24.118 725.607 -24.197 725.518 Q -24.275 725.428 -24.373 725.329 Q -24.470 725.230 -24.500 725.195 Q -24.530 725.161 -24.757 724.935 Q -24.985 724.709 -25.175 724.539 Q -25.366 724.369 -25.642 724.138 Q -25.918 723.908 -26.075 723.765 Q -26.231 723.622 -26.751 723.106 Q -27.271 722.590 -27.487 722.355 Q -27.704 722.120 -27.787 722.019 Q -27.871 721.919 -28.029 721.714 Q -28.187 721.509 -28.193 721.497 Q -28.198 721.486 -28.348 721.286 Q -28.497 721.087 -28.710 720.739 Q -28.922 720.391 -29.115 719.967 Q -29.308 719.544 -29.401 719.356 Q -29.495 719.169 -29.673 718.812 "></path>
  </g>
  <g id="Pen" opacity="1.000">
    <path id="STROKE_c24c4d7c-66e5-48ac-82d9-3efac4fd2d5e" opacity="1.000" fill="none" stroke="#000000" stroke-width="4.584" stroke-opacity="1.000" stroke-linecap="round" stroke-linejoin="round" d="M -36.630 748.911 Q -36.889 748.398 -36.998 748.184 Q -37.108 747.970 -37.144 747.881 Q -37.181 747.792 -37.409 747.266 Q -37.637 746.740 -37.904 746.139 Q -38.170 745.537 -38.329 745.155 Q -38.488 744.773 -38.889 743.796 Q -39.289 742.819 -39.394 742.547 Q -39.499 742.275 -39.924 741.152 Q -40.348 740.030 -40.623 739.266 Q -40.897 738.502 -41.129 737.866 Q -41.360 737.229 -41.555 736.664 Q -41.750 736.099 -41.854 735.783 Q -41.958 735.466 -42.141 734.921 Q -42.323 734.376 -42.570 733.590 Q -42.818 732.804 -42.908 732.528 Q -42.998 732.253 -43.121 731.846 Q -43.243 731.438 -43.483 730.629 Q -43.724 729.820 -44.003 728.803 Q -44.282 727.786 -44.402 727.333 Q -44.522 726.880 -44.770 725.838 Q -45.018 724.796 -45.193 723.998 Q -45.369 723.201 -45.548 722.247 Q -45.727 721.293 -45.914 720.258 Q -46.029 719.478 -46.090 719.058 Q -46.150 718.637 -46.226 717.955 Q -46.301 717.273 -46.307 717.230 Q -46.314 717.188 -46.368 716.489 Q -46.422 715.789 -46.444 715.299 Q -46.466 714.809 -46.484 714.342 Q -46.501 713.876 -46.503 713.083 Q -46.505 712.291 -46.490 711.686 Q -46.475 711.081 -46.433 710.345 Q -46.392 709.610 -46.356 709.182 Q -46.319 708.753 -46.292 708.477 Q -46.266 708.201 -46.231 707.857 Q -46.196 707.513 -46.105 706.846 Q -46.014 706.178 -45.957 705.833 Q -45.900 705.489 -45.870 705.296 Q -45.840 705.102 -45.724 704.518 Q -45.608 703.933 -45.410 703.124 Q -45.213 702.314 -45.031 701.697 Q -44.848 701.080 -44.704 700.639 Q -44.561 700.199 -44.239 699.372 Q -43.917 698.546 -43.836 698.351 Q -43.754 698.156 -43.159 696.983 Q -42.564 695.809 -42.438 695.596 Q -42.311 695.382 -41.936 694.816 Q -41.561 694.250 -41.113 693.664 Q -40.665 693.077 -40.420 692.778 Q -40.174 692.478 -39.857 692.130 Q -39.540 691.782 -39.404 691.634 Q -39.268 691.486 -38.548 690.803 Q -37.828 690.119 -37.314 689.683 Q -36.800 689.247 -36.329 688.894 Q -35.859 688.541 -34.712 687.838 Q -33.566 687.134 -32.311 686.525 Q -31.057 685.915 -30.560 685.716 Q -30.063 685.518 -28.885 685.144 Q -27.707 684.769 -27.528 684.723 Q -27.350 684.678 -26.793 684.540 Q -26.237 684.403 -25.779 684.312 Q -25.322 684.222 -24.927 684.147 Q -24.532 684.073 -24.043 684.004 Q -23.555 683.936 -23.330 683.906 Q -23.105 683.877 -22.573 683.828 Q -22.041 683.780 -21.418 683.748 Q -20.795 683.716 -20.096 683.715 Q -19.397 683.714 -19.161 683.718 Q -18.926 683.722 -18.525 683.743 Q -18.125 683.765 -17.706 683.799 Q -17.287 683.833 -16.833 683.877 Q -16.378 683.922 -15.915 683.991 Q -15.452 684.060 -14.755 684.183 Q -14.058 684.305 -13.645 684.395 Q -13.233 684.484 -12.530 684.667 Q -11.828 684.850 -11.050 685.101 Q -10.272 685.351 -9.874 685.487 Q -9.475 685.622 -8.870 685.858 Q -8.265 686.094 -7.889 686.260 Q -7.514 686.426 -6.342 687.029 Q -5.170 687.632 -4.803 687.860 Q -4.437 688.088 -3.804 688.540 Q -3.171 688.991 -3.050 689.088 Q -2.930 689.184 -2.522 689.518 Q -2.114 689.853 -1.389 690.574 Q -0.663 691.295 -0.201 691.843 Q 0.261 692.390 0.605 692.851 Q 0.950 693.312 1.252 693.778 Q 1.554 694.245 1.813 694.675 Q 2.071 695.106 2.378 695.677 Q 2.684 696.249 3.200 697.318 Q 3.716 698.387 3.900 698.812 Q 4.085 699.237 4.261 699.637 Q 4.437 700.038 4.491 700.170 Q 4.546 700.302 4.900 701.261 Q 5.254 702.221 5.391 702.676 Q 5.529 703.131 5.717 703.822 Q 5.905 704.513 6.087 705.321 Q 6.269 706.128 6.392 706.827 Q 6.514 707.526 6.600 708.190 Q 6.686 708.855 6.770 709.949 Q 6.854 711.044 6.877 711.798 Q 6.900 712.552 6.900 712.759 Q 6.899 712.966 6.896 713.398 Q 6.893 713.831 6.868 714.392 Q 6.844 714.952 6.807 715.539 Q 6.770 716.126 6.667 717.085 Q 6.563 718.045 6.441 718.882 Q 6.320 719.719 6.215 720.340 Q 6.111 720.960 5.905 721.990 Q 5.700 723.020 5.502 723.900 Q 5.303 724.781 5.265 724.935 Q 5.226 725.090 4.755 726.904 Q 4.284 728.717 4.084 729.406 Q 3.885 730.095 3.605 731.028 Q 3.326 731.961 3.101 732.665 Q 2.877 733.369 2.740 733.792 Q 2.604 734.216 2.306 735.092 Q 2.009 735.968 1.829 736.463 Q 1.649 736.957 1.528 737.278 Q 1.406 737.599 1.057 738.510 Q 0.707 739.421 0.289 740.457 Q -0.130 741.493 -0.713 742.851 Q -1.297 744.210 -1.736 745.226 Q -2.174 746.242 -2.636 747.326 Q -3.097 748.409 -3.339 748.974 Q -3.581 749.538 -4.040 750.607 Q -4.500 751.676 -4.806 752.384 Q -5.113 753.092 -5.513 753.998 Q -5.914 754.904 -6.287 755.766 Q -6.660 756.628 -6.825 757.001 Q -6.989 757.374 -7.139 757.724 Q -7.289 758.074 -7.559 758.678 Q -7.829 759.282 -7.950 759.547 Q -8.071 759.811 -8.437 760.637 Q -8.804 761.462 -9.005 761.917 Q -9.207 762.370 -9.452 762.922 Q -9.697 763.474 -9.939 763.997 Q -10.180 764.519 -10.324 764.809 Q -10.468 765.100 -10.640 765.465 Q -10.813 765.830 -11.161 766.521 Q -11.510 767.212 -12.014 768.130 Q -12.518 769.049 -12.916 769.679 Q -13.313 770.308 -13.823 771.035 Q -14.332 771.761 -14.791 772.315 Q -15.250 772.869 -15.658 773.285 Q -16.065 773.702 -17.433 774.789 L -18.811 775.484 L -19.332 775.656 L -20.503 775.803 Q -21.345 775.716 -21.377 775.714 Q -21.410 775.711 -21.600 775.668 Q -21.791 775.626 -21.914 775.587 Q -22.038 775.549 -22.194 775.480 Q -22.350 775.411 -22.793 775.129 Q -23.235 774.846 -23.536 774.594 Q -23.838 774.341 -24.053 774.136 Q -24.268 773.931 -25.139 772.885 Q -25.383 772.543 -25.603 772.189 Q -25.822 771.835 -26.232 771.131 Q -26.641 770.428 -26.829 770.071 Q -27.017 769.714 -27.154 769.434 Q -27.292 769.155 -27.318 769.106 Q -27.345 769.057 -27.639 768.436 Q -27.932 767.814 -28.483 766.673 Q -28.626 766.352 -28.826 765.939 Q -29.026 765.525 -29.228 765.107 Q -29.429 764.689 -29.852 763.800 Q -30.274 762.912 -30.724 761.984 Q -31.174 761.056 -31.436 760.488 Q -31.698 759.920 -31.913 759.451 Q -32.127 758.981 -32.276 758.676 Q -32.425 758.372 -32.688 757.798 Q -32.950 757.224 -33.316 756.412 Q -33.683 755.599 -33.866 755.184 Q -34.049 754.769 -34.346 754.076 Q -34.644 753.384 -35.201 752.103 Q -35.235 752.039 -35.542 751.325 Q -35.848 750.611 -36.024 750.206 Q -36.201 749.801 -36.336 749.470 Q -36.472 749.139 -36.564 748.932 Q -36.656 748.724 -36.901 748.110 "></path>
    <path id="STROKE_8d2e7609-f8d8-4c57-be22-6c71d7f0dd83" opacity="1.000" fill="none" stroke="#000000" stroke-width="4.584" stroke-opacity="1.000" stroke-linecap="round" stroke-linejoin="round" d="M -46.125 754.675 Q -46.383 754.162 -46.493 753.948 Q -46.602 753.734 -46.639 753.645 Q -46.675 753.556 -46.904 753.030 Q -47.132 752.504 -47.399 751.902 Q -47.665 751.301 -47.784 751.014 Q -47.903 750.728 -48.043 750.388 Q -48.183 750.048 -48.384 749.559 Q -48.584 749.071 -48.711 748.758 Q -48.838 748.446 -48.890 748.310 Q -48.943 748.174 -49.075 747.825 Q -49.208 747.476 -49.421 746.914 Q -49.634 746.353 -49.809 745.881 Q -49.984 745.409 -50.191 744.835 Q -50.398 744.261 -50.632 743.623 Q -50.865 742.984 -51.062 742.416 Q -51.259 741.849 -51.365 741.530 Q -51.471 741.212 -51.657 740.662 Q -51.843 740.111 -52.097 739.314 Q -52.351 738.516 -52.445 738.235 Q -52.538 737.954 -52.665 737.535 Q -52.793 737.117 -52.982 736.486 Q -53.172 735.855 -53.310 735.372 Q -53.448 734.890 -53.597 734.346 Q -53.747 733.802 -53.854 733.404 Q -53.961 733.007 -54.025 732.755 Q -54.090 732.505 -54.190 732.076 Q -54.291 731.647 -54.426 731.041 Q -54.562 730.435 -54.679 729.880 Q -54.795 729.324 -54.892 728.820 Q -54.989 728.316 -55.089 727.728 Q -55.189 727.141 -55.292 726.471 Q -55.395 725.801 -55.502 725.061 Q -55.610 724.320 -55.722 723.510 Q -55.872 722.193 -55.934 721.621 Q -55.996 721.048 -56.044 720.513 Q -56.093 719.978 -56.148 719.289 Q -56.204 718.600 -56.234 718.239 Q -56.263 717.878 -56.267 717.826 Q -56.272 717.775 -56.289 717.348 Q -56.305 716.922 -56.332 716.107 Q -56.359 715.291 -56.360 714.745 Q -56.360 714.198 -56.348 713.776 Q -56.336 713.354 -56.312 712.875 Q -56.287 712.396 -56.245 711.910 Q -56.202 711.424 -56.140 710.931 Q -56.079 710.438 -56.003 709.955 Q -55.927 709.472 -55.836 709.000 Q -55.746 708.527 -55.601 707.989 Q -55.457 707.450 -55.259 706.846 Q -55.060 706.242 -54.843 705.666 Q -54.626 705.091 -54.390 704.544 Q -54.153 703.997 -53.901 703.482 Q -53.648 702.966 -53.380 702.482 Q -53.111 701.998 -52.839 701.556 Q -52.566 701.114 -52.289 700.712 Q -52.013 700.311 -51.768 699.973 Q -51.523 699.635 -51.203 699.222 Q -50.884 698.810 -50.399 698.242 Q -49.915 697.675 -49.453 697.183 Q -48.992 696.692 -48.494 696.215 Q -47.996 695.739 -47.645 695.423 Q -47.294 695.107 -46.924 694.793 Q -46.554 694.480 -46.201 694.194 Q -45.848 693.908 -45.513 693.650 Q -45.177 693.392 -44.787 693.104 Q -44.396 692.817 -43.951 692.500 Q -43.505 692.182 -43.039 691.864 Q -42.573 691.546 -42.085 691.229 Q -41.598 690.912 -41.112 690.609 Q -40.626 690.306 -40.140 690.020 Q -39.655 689.733 -39.158 689.454 Q -38.660 689.176 -38.150 688.907 Q -37.640 688.638 -37.169 688.402 Q -36.698 688.165 -36.267 687.962 Q -35.836 687.758 -35.357 687.543 Q -34.878 687.329 -34.351 687.107 Q -33.824 686.885 -33.248 686.659 Q -32.672 686.434 -32.046 686.208 Q -31.419 685.982 -30.750 685.761 Q -30.080 685.540 -29.367 685.322 "></path>
    <path id="STROKE_e9af6e78-d129-4d7a-baf6-3707572f795f" opacity="1.000" fill="none" stroke="#000000" stroke-width="4.584" stroke-opacity="1.000" stroke-linecap="round" stroke-linejoin="round" d="M -15.080 772.706 L -16.333 774.334 Q -17.028 775.181 -17.556 775.816 Q -18.085 776.451 -18.445 776.884 Q -18.806 777.317 -19.007 777.551 Q -19.207 777.785 -19.266 777.854 Q -19.326 777.924 -19.948 778.596 Q -20.570 779.269 -20.972 779.663 Q -21.375 780.058 -21.765 780.393 Q -22.154 780.728 -22.650 781.083 Q -23.146 781.437 -23.891 781.859 Q -24.636 782.281 -25.264 782.512 Q -25.891 782.744 -26.391 782.837 Q -26.891 782.930 -27.314 782.948 Q -27.737 782.966 -28.077 782.941 Q -28.417 782.916 -29.230 782.679 Q -30.044 782.443 -31.342 781.900 Q -32.001 781.481 -32.421 781.136 Q -32.841 780.791 -33.199 780.428 Q -33.557 780.065 -33.992 779.571 Q -34.426 779.077 -34.727 778.705 Q -35.029 778.332 -35.284 777.951 Q -35.539 777.569 -35.770 777.173 Q -36.001 776.776 -36.032 776.725 Q -36.062 776.673 -36.182 776.440 Q -36.302 776.207 -36.521 775.776 Q -36.740 775.346 -37.029 774.752 Q -37.319 774.158 -37.679 773.401 Q -37.858 772.990 -38.095 772.473 Q -38.333 771.955 -38.506 771.576 Q -38.678 771.197 -38.852 770.813 Q -39.025 770.430 -39.254 769.924 Q -39.483 769.418 -39.713 768.917 Q -39.944 768.417 -40.178 767.918 Q -40.411 767.420 -40.594 767.026 Q -40.777 766.632 -40.977 766.190 Q -41.178 765.748 -41.395 765.267 Q -41.613 764.785 -41.763 764.475 Q -41.913 764.165 -42.177 763.584 Q -42.441 763.004 -42.809 762.186 Q -43.176 761.369 -43.359 760.953 Q -43.542 760.536 -43.840 759.843 Q -44.138 759.149 -44.695 757.868 Q -44.730 757.803 -45.036 757.089 Q -45.342 756.375 -45.519 755.970 Q -45.695 755.565 -45.831 755.234 Q -45.966 754.903 -46.059 754.696 Q -46.151 754.488 -46.396 753.873 "></path>
    <path id="STROKE_35ff9d8a-fa02-405c-9c5e-8b97bee72553" opacity="1.000" fill="none" stroke="#000000" stroke-width="4.584" stroke-opacity="1.000" stroke-linecap="round" stroke-linejoin="round" d="M -22.903 724.812 L -23.141 724.726 Q -23.508 724.559 -23.638 724.502 Q -23.768 724.445 -23.988 724.338 Q -24.208 724.231 -24.565 724.029 Q -24.922 723.826 -25.200 723.642 Q -25.479 723.458 -25.565 723.402 Q -25.652 723.345 -25.854 723.190 Q -26.055 723.035 -26.258 722.859 Q -26.461 722.683 -26.542 722.605 Q -26.623 722.527 -26.765 722.392 Q -26.906 722.258 -27.110 722.039 Q -27.314 721.819 -27.634 721.417 Q -27.955 721.015 -28.196 720.659 Q -28.436 720.303 -28.600 720.024 Q -28.763 719.745 -28.953 719.384 Q -29.143 719.023 -29.281 718.708 Q -29.419 718.392 -29.717 717.420 Q -30.015 716.448 -30.137 715.659 Q -30.258 714.870 -30.278 714.449 Q -30.297 714.028 -30.268 713.318 Q -30.239 712.609 -30.211 712.384 Q -30.183 712.158 -30.178 712.108 Q -30.173 712.057 -30.064 711.503 Q -29.954 710.948 -29.819 710.484 Q -29.683 710.019 -29.527 709.623 Q -29.372 709.227 -29.209 708.900 Q -29.046 708.572 -28.906 708.335 Q -28.766 708.098 -28.515 707.745 Q -28.263 707.392 -28.009 707.095 Q -27.755 706.799 -27.508 706.559 Q -27.260 706.318 -27.230 706.291 Q -27.200 706.264 -26.627 705.857 Q -26.053 705.450 -25.669 705.247 Q -25.286 705.044 -24.979 704.914 Q -24.673 704.783 -24.236 704.620 Q -23.799 704.456 -23.516 704.363 Q -23.232 704.270 -23.108 704.234 Q -22.983 704.198 -22.479 704.088 Q -21.975 703.977 -21.803 703.947 Q -21.631 703.917 -21.345 703.881 Q -21.060 703.846 -20.592 703.813 Q -20.124 703.779 -20.038 703.775 Q -19.952 703.770 -19.686 703.773 Q -19.419 703.775 -19.070 703.803 Q -18.721 703.831 -18.319 703.879 Q -17.916 703.927 -17.810 703.946 Q -17.703 703.966 -17.332 704.060 Q -16.961 704.153 -16.586 704.261 Q -16.212 704.368 -15.998 704.445 Q -15.784 704.522 -15.545 704.624 Q -15.307 704.727 -14.882 704.932 Q -14.457 705.137 -14.125 705.341 Q -13.793 705.546 -13.455 705.798 Q -13.117 706.050 -12.655 706.498 Q -12.194 706.945 -11.970 707.236 Q -11.746 707.526 -11.531 707.862 Q -11.317 708.198 -11.207 708.400 Q -11.097 708.602 -10.735 709.448 Q -10.373 710.293 -10.307 710.495 Q -10.241 710.697 -10.146 711.009 Q -10.051 711.322 -9.987 711.582 Q -9.922 711.843 -9.852 712.203 Q -9.781 712.563 -9.707 713.189 Q -9.634 713.815 -9.624 714.277 Q -9.615 714.740 -9.635 715.111 Q -9.655 715.482 -9.717 715.914 Q -9.779 716.346 -9.855 716.702 Q -9.932 717.057 -10.005 717.314 Q -10.078 717.570 -10.238 718.038 Q -10.398 718.507 -10.572 718.909 Q -10.745 719.311 -11.139 720.023 Q -11.533 720.735 -11.712 721.010 Q -11.891 721.285 -12.079 721.536 Q -12.268 721.787 -12.445 721.997 Q -12.622 722.206 -12.924 722.515 Q -13.226 722.824 -13.394 722.982 Q -13.562 723.140 -14.221 723.622 Q -14.880 724.104 -15.128 724.256 Q -15.376 724.409 -15.594 724.521 Q -15.812 724.633 -16.046 724.742 Q -16.280 724.851 -16.520 724.935 Q -16.759 725.018 -16.786 725.029 Q -16.814 725.040 -17.022 725.098 Q -17.231 725.156 -17.759 725.246 Q -18.286 725.336 -18.750 725.382 Q -19.214 725.427 -19.790 725.416 L -20.126 725.385 Q -20.579 725.339 -20.748 725.321 Q -20.917 725.303 -21.454 725.217 Q -21.695 725.174 -21.858 725.143 Q -22.021 725.111 -22.302 725.059 Q -22.609 724.973 -22.992 724.893 "></path>
    <path id="STROKE_ff7b011f-8ae7-4c84-8f02-171830a0d807" opacity="1.000" fill="none" stroke="#000000" stroke-width="4.584" stroke-opacity="1.000" stroke-linecap="round" stroke-linejoin="round" d="M -27.164 708.067 Q -26.595 708.499 -26.469 708.600 Q -26.343 708.701 -26.013 708.978 Q -25.683 709.254 -25.507 709.417 Q -25.330 709.579 -25.308 709.604 Q -25.286 709.629 -24.635 710.320 Q -23.984 711.012 -23.785 711.278 Q -23.585 711.544 -23.249 712.063 Q -22.913 712.581 -22.722 712.961 Q -22.530 713.341 -22.281 714.005 Q -22.031 714.669 -21.912 715.185 Q -21.794 715.701 -21.748 716.624 Q -21.703 717.548 -21.731 717.828 Q -21.759 718.109 -21.796 718.332 Q -21.833 718.554 -21.961 719.041 Q -22.089 719.529 -22.282 720.053 Q -22.476 720.578 -22.640 720.944 Q -22.805 721.310 -23.509 722.661 "></path>
    <path id="STROKE_b5bab036-1c0a-479d-a557-9a2dfb9becd0" opacity="1.000" fill="#000000" stroke="#000000" stroke-width="0.000" stroke-opacity="1.000" stroke-linecap="round" stroke-linejoin="round" d="M -24.015 712.488 Q -24.128 712.377 -24.296 712.235 Q -24.464 712.094 -24.650 711.924 Q -24.836 711.754 -25.069 711.499 Q -25.302 711.245 -25.358 711.171 Q -25.415 711.096 -25.598 710.844 Q -25.781 710.591 -25.900 710.400 Q -26.018 710.209 -26.034 710.177 Q -26.050 710.146 -26.190 709.835 Q -26.331 709.523 -26.379 709.109 Q -26.427 708.694 -26.390 708.442 Q -26.354 708.190 -26.109 707.695 Q -25.863 707.200 -25.639 706.901 Q -25.414 706.603 -25.062 706.256 Q -24.711 705.909 -24.452 705.728 Q -24.193 705.548 -23.856 705.410 Q -23.519 705.273 -23.053 705.156 Q -22.587 705.039 -21.991 704.945 Q -21.394 704.852 -20.908 704.816 Q -20.422 704.781 -20.108 704.777 Q -19.794 704.773 -19.595 704.776 Q -19.397 704.780 -18.699 704.839 Q -18.002 704.898 -17.483 704.999 Q -16.964 705.099 -16.633 705.192 Q -16.302 705.284 -15.888 705.447 Q -15.474 705.609 -14.962 705.929 Q -14.450 706.248 -13.954 706.691 Q -13.458 707.135 -13.234 707.359 Q -13.009 707.584 -12.923 707.674 Q -12.837 707.764 -12.468 708.193 Q -12.100 708.623 -11.953 708.818 Q -11.806 709.012 -11.591 709.308 Q -11.376 709.605 -11.320 709.685 Q -11.264 709.766 -11.127 710.013 Q -10.990 710.260 -10.950 710.326 Q -10.911 710.392 -10.736 710.828 Q -10.560 711.263 -10.489 711.513 Q -10.418 711.763 -10.353 712.025 Q -10.287 712.287 -10.203 712.968 Q -10.120 713.648 -10.124 714.383 Q -10.128 715.117 -10.158 715.508 Q -10.187 715.900 -10.199 716.054 Q -10.211 716.208 -10.327 716.883 Q -10.442 717.558 -10.629 718.163 Q -10.816 718.768 -10.919 719.013 Q -11.023 719.257 -11.212 719.579 Q -11.401 719.901 -11.564 720.121 Q -11.726 720.340 -12.308 720.932 Q -12.890 721.523 -13.077 721.689 Q -13.265 721.856 -13.324 721.912 Q -13.383 721.969 -13.787 722.298 Q -14.192 722.626 -14.456 722.811 Q -14.721 722.996 -14.820 723.065 Q -14.919 723.135 -15.454 723.427 Q -15.989 723.720 -16.288 723.853 Q -16.588 723.985 -16.910 724.126 Q -17.233 724.266 -17.465 724.359 Q -17.696 724.452 -17.904 724.519 Q -18.111 724.586 -18.351 724.643 Q -18.592 724.700 -18.663 724.710 Q -18.734 724.720 -18.755 724.729 Q -18.777 724.738 -19.554 724.745 Q -20.331 724.752 -20.766 724.709 Q -21.201 724.666 -21.448 724.617 Q -21.694 724.568 -21.862 724.529 Q -22.030 724.489 -22.152 724.452 Q -22.273 724.414 -22.297 724.411 Q -22.320 724.407 -22.546 724.309 Q -22.772 724.210 -22.956 724.069 Q -23.140 723.927 -23.207 723.831 Q -23.274 723.735 -23.298 723.564 Q -23.322 723.393 -23.294 723.207 Q -23.265 723.021 -23.119 722.663 Q -22.973 722.306 -22.961 722.289 Q -22.949 722.273 -22.762 721.992 Q -22.575 721.711 -22.498 721.608 Q -22.422 721.505 -22.358 721.381 Q -22.294 721.257 -22.113 720.954 "></path>
    <path id="STROKE_1711aaa7-16e4-437f-ba7c-dffc523f2eb1" opacity="1.000" fill="#000000" stroke="#000000" stroke-width="0.000" stroke-opacity="1.000" stroke-linecap="round" stroke-linejoin="round" d="M -42.377 694.099 Q -42.525 694.153 -43.104 694.330 Q -43.684 694.507 -44.195 694.705 Q -44.706 694.904 -45.027 695.057 Q -45.349 695.211 -45.765 695.422 Q -46.181 695.632 -46.406 695.753 Q -46.631 695.873 -47.716 696.596 Q -48.801 697.318 -49.432 697.815 Q -50.063 698.311 -50.549 698.790 Q -51.035 699.268 -51.315 699.587 Q -51.595 699.907 -52.362 700.975 Q -53.129 702.043 -53.762 703.044 Q -54.394 704.045 -54.735 704.636 Q -55.075 705.228 -55.316 705.830 Q -55.557 706.433 -55.866 707.607 Q -56.175 708.781 -56.224 708.986 Q -56.274 709.192 -56.409 709.805 Q -56.543 710.418 -56.718 711.569 Q -56.894 712.721 -56.929 713.523 Q -56.965 714.326 -56.941 715.014 Q -56.916 715.702 -56.887 716.732 Q -56.857 717.762 -56.762 719.271 Q -56.666 720.780 -56.560 721.551 Q -56.453 722.323 -56.368 722.790 Q -56.283 723.257 -56.065 724.405 Q -55.847 725.554 -55.739 726.141 Q -55.631 726.727 -55.547 727.147 Q -55.463 727.567 -55.118 728.829 Q -54.773 730.091 -54.554 730.871 Q -54.335 731.651 -54.204 732.213 Q -54.073 732.774 -54.003 733.071 Q -53.933 733.368 -53.716 734.284 Q -53.499 735.200 -52.937 737.057 Q -52.376 738.913 -52.088 739.907 Q -51.801 740.901 -51.660 741.458 Q -51.520 742.015 -51.440 742.305 Q -51.361 742.595 -51.300 742.821 Q -51.240 743.048 -50.854 744.308 Q -50.468 745.567 -49.849 747.387 Q -49.230 749.207 -48.894 750.129 Q -48.557 751.052 -48.356 751.580 Q -48.154 752.108 -48.034 752.421 Q -47.915 752.734 -47.381 753.998 Q -46.848 755.261 -46.388 756.221 Q -45.928 757.181 -45.317 758.348 Q -44.706 759.516 -44.401 760.130 Q -44.097 760.745 -43.826 761.316 Q -43.556 761.888 -43.093 762.820 Q -42.630 763.753 -42.305 764.398 Q -41.980 765.044 -41.525 765.943 Q -41.070 766.843 -40.876 767.222 Q -40.682 767.601 -40.347 768.249 Q -40.012 768.897 -39.690 769.451 Q -39.368 770.005 -38.763 770.986 Q -38.157 771.967 -37.895 772.443 Q -37.633 772.919 -37.446 773.257 Q -37.258 773.596 -37.032 774.042 Q -36.806 774.489 -36.402 775.191 Q -35.999 775.893 -35.751 776.265 Q -35.503 776.638 -35.353 776.853 Q -35.204 777.068 -34.977 777.404 Q -34.750 777.740 -34.546 778.029 Q -34.342 778.318 -34.328 778.333 Q -34.314 778.348 -34.196 778.503 Q -34.079 778.657 -33.875 778.922 Q -33.671 779.187 -33.427 779.450 Q -33.183 779.713 -32.944 779.921 Q -32.704 780.129 -32.011 780.643 Q -31.318 781.157 -30.800 781.465 Q -30.283 781.773 -29.969 781.914 Q -29.656 782.056 -29.439 782.142 Q -29.223 782.229 -29.029 782.292 Q -28.835 782.355 -28.591 782.412 Q -28.347 782.468 -28.245 782.482 Q -28.143 782.496 -28.105 782.506 Q -28.068 782.516 -27.427 782.505 Q -26.787 782.494 -26.445 782.453 Q -26.103 782.412 -25.730 782.351 Q -25.356 782.291 -24.761 782.064 Q -24.167 781.837 -23.744 781.609 Q -23.321 781.381 -23.119 781.241 Q -22.918 781.101 -22.768 780.976 Q -22.619 780.852 -22.499 780.736 Q -22.380 780.619 -22.279 780.511 Q -22.178 780.403 -22.063 780.287 Q -21.948 780.171 -21.757 779.954 Q -21.567 779.737 -21.328 779.424 Q -21.090 779.111 -21.013 778.988 Q -20.936 778.865 -20.784 778.551 Q -20.632 778.238 -20.600 778.161 Q -20.568 778.085 -20.514 777.833 Q -20.461 777.582 -20.459 777.456 Q -20.457 777.329 -20.488 777.169 Q -20.519 777.009 -20.580 776.877 Q -20.641 776.746 -20.723 776.620 Q -20.805 776.495 -20.943 776.359 Q -21.082 776.223 -21.219 776.116 Q -21.356 776.009 -21.719 775.782 Q -22.083 775.556 -22.699 775.212 Q -23.315 774.868 -23.359 774.845 Q -23.403 774.821 -23.725 774.594 Q -24.047 774.368 -24.285 774.173 Q -24.524 773.978 -24.656 773.872 Q -24.788 773.765 -24.933 773.642 Q -25.078 773.518 -25.333 773.291 Q -25.588 773.065 -25.795 772.878 Q -26.002 772.692 -26.125 772.582 Q -26.248 772.472 -26.529 772.209 Q -26.810 771.946 -26.921 771.841 Q -27.032 771.736 -27.495 771.266 Q -27.958 770.796 -28.199 770.519 Q -28.441 770.243 -28.666 769.962 Q -28.892 769.681 -29.151 769.324 Q -29.410 768.967 -29.510 768.814 Q -29.610 768.661 -29.792 768.341 Q -29.974 768.022 -30.007 767.955 Q -30.039 767.887 -30.074 767.829 Q -30.109 767.770 -30.523 766.618 Q -30.936 765.466 -31.009 765.221 Q -31.082 764.975 -31.132 764.753 Q -31.182 764.531 -31.366 763.845 Q -31.550 763.159 -31.860 762.079 Q -32.169 760.999 -32.339 760.360 Q -32.508 759.721 -32.642 759.245 Q -32.777 758.769 -32.877 758.406 Q -32.977 758.044 -33.088 757.637 Q -33.199 757.231 -33.372 756.638 Q -33.546 756.046 -33.674 755.639 Q -33.801 755.232 -34.071 754.372 Q -34.340 753.511 -34.480 753.062 Q -34.620 752.613 -34.807 752.061 Q -34.995 751.509 -35.109 751.184 Q -35.224 750.858 -35.517 750.019 Q -35.810 749.181 -35.984 748.694 Q -36.157 748.208 -36.217 748.048 Q -36.277 747.889 -36.440 747.436 Q -36.602 746.982 -36.718 746.661 Q -36.834 746.339 -36.995 745.898 Q -37.155 745.458 -37.371 744.927 Q -37.586 744.396 -37.745 744.001 Q -37.905 743.607 -38.075 743.170 Q -38.246 742.732 -38.466 742.181 Q -38.687 741.630 -38.962 741.019 Q -39.237 740.407 -39.471 739.922 Q -39.705 739.437 -39.941 738.961 Q -40.177 738.485 -40.531 737.724 Q -40.886 736.963 -41.066 736.548 Q -41.245 736.133 -41.455 735.588 Q -41.665 735.044 -41.763 734.780 Q -41.861 734.516 -42.008 734.081 Q -42.155 733.646 -42.251 733.328 Q -42.346 733.010 -42.382 732.869 Q -42.417 732.728 -42.655 731.863 Q -42.893 730.998 -43.128 730.237 Q -43.363 729.475 -43.488 729.031 Q -43.613 728.586 -43.774 728.002 Q -43.935 727.418 -44.032 727.001 Q -44.129 726.583 -44.202 726.232 Q -44.275 725.880 -44.302 725.756 Q -44.330 725.632 -44.513 724.822 Q -44.697 724.012 -44.779 723.611 Q -44.861 723.210 -44.934 722.788 Q -45.007 722.365 -45.059 722.027 Q -45.110 721.688 -45.150 721.436 Q -45.189 721.184 -45.220 721.022 Q -45.251 720.860 -45.316 720.567 Q -45.382 720.275 -45.467 719.935 Q -45.551 719.595 -45.713 719.094 Q -45.875 718.594 -46.042 718.061 Q -46.209 717.528 -46.256 717.351 Q -46.304 717.174 -46.339 717.061 Q -46.374 716.948 -46.420 716.736 Q -46.466 716.524 -46.530 716.239 "></path>
  </g>
</svg>